<svg width="23" height="23" viewBox="0 0 23 23" fill="none" xmlns="http://www.w3.org/2000/svg">
<path d="M18.2083 12.4584V9.58337H17.25V8.62504H16.2917V5.75004H15.3333V3.83337H14.375V2.87504H13.4167V1.91671H12.4583V0.958374H10.5417V1.91671H11.5V3.83337H10.5417V5.75004H9.58333V6.70837H8.625V7.66671H7.66667V8.62504H6.70833V9.58337H5.75V12.4584H6.70833V14.375H5.75V13.4167H4.79167V11.5H3.83333V13.4167H2.875V16.2917H3.83333V18.2084H4.79167V19.1667H5.75V20.125H6.70833V21.0834H7.66667V22.0417H15.3333V21.0834H16.2917V20.125H17.25V19.1667H18.2083V17.25H19.1667V12.4584H18.2083ZM16.2917 19.1667H15.3333V20.125H13.4167V21.0834H9.58333V20.125H8.625V16.2917H9.58333V15.3334H10.5417V14.375H11.5V13.4167H12.4583V10.5417H11.5V9.58337H10.5417V8.62504H11.5V9.58337H13.4167V11.5H14.375V16.2917H13.4167V18.2084H14.375V17.25H15.3333V16.2917H16.2917V19.1667Z" fill="#211E1F"/>
</svg>
