<svg width="34" height="34" viewBox="0 0 34 34" fill="none" xmlns="http://www.w3.org/2000/svg">
<path d="M9.91667 2.83331H24.0833V5.66665H9.91667V2.83331ZM7.08333 8.49998V5.66665H9.91667V8.49998H7.08333ZM7.08333 19.8333H4.25V8.49998H7.08333V19.8333ZM9.91667 22.6666H7.08333V19.8333H9.91667V22.6666ZM12.75 25.5H9.91667V22.6666H12.75V25.5ZM15.5833 28.3333H12.75V25.5H15.5833V28.3333ZM18.4167 28.3333V31.1666H15.5833V28.3333H18.4167ZM21.25 25.5V28.3333H18.4167V25.5H21.25ZM24.0833 22.6666V25.5H21.25V22.6666H24.0833ZM26.9167 19.8333V22.6666H24.0833V19.8333H26.9167ZM26.9167 8.49998H29.75V19.8333H26.9167V8.49998ZM26.9167 8.49998V5.66665H24.0833V8.49998H26.9167ZM19.8333 11.3333H14.1667V17H19.8333V11.3333Z" fill="#211E1F"/>
</svg>
