<svg width="50" height="50" viewBox="0 0 50 50" fill="none" xmlns="http://www.w3.org/2000/svg">
<mask id="path-1-inside-1_1_51" fill="white">
<path d="M4.16663 4.16669H12.5V12.5H45.8333V35.4167H8.33329V8.33335H4.16663V4.16669ZM12.5 31.25H41.6666V16.6667H12.5V31.25ZM12.5 39.5834H18.75V45.8334H12.5V39.5834ZM41.6666 39.5834H35.4166V45.8334H41.6666V39.5834Z"/>
</mask>
<path d="M4.16663 4.16669H12.5V12.5H45.8333V35.4167H8.33329V8.33335H4.16663V4.16669ZM12.5 31.25H41.6666V16.6667H12.5V31.25ZM12.5 39.5834H18.75V45.8334H12.5V39.5834ZM41.6666 39.5834H35.4166V45.8334H41.6666V39.5834Z" fill="white"/>
<path d="M4.16663 4.16669V-37.8333H-37.8334V4.16669H4.16663ZM12.5 4.16669H54.5V-37.8333H12.5V4.16669ZM12.5 12.5H-29.5V54.5H12.5V12.5ZM45.8333 12.5H87.8333V-29.5H45.8333V12.5ZM45.8333 35.4167V77.4167H87.8333V35.4167H45.8333ZM8.33329 35.4167H-33.6667V77.4167H8.33329V35.4167ZM8.33329 8.33335H50.3333V-33.6666H8.33329V8.33335ZM4.16663 8.33335H-37.8334V50.3334H4.16663V8.33335ZM12.5 31.25H-29.5V73.25H12.5V31.25ZM41.6666 31.25V73.25H83.6666V31.25H41.6666ZM41.6666 16.6667H83.6666V-25.3333H41.6666V16.6667ZM12.5 16.6667V-25.3333H-29.5V16.6667H12.5ZM12.5 39.5834V-2.41664H-29.5V39.5834H12.5ZM18.75 39.5834H60.75V-2.41664H18.75V39.5834ZM18.75 45.8334V87.8334H60.75V45.8334H18.75ZM12.5 45.8334H-29.5V87.8334H12.5V45.8334ZM41.6666 39.5834H83.6666V-2.41664H41.6666V39.5834ZM35.4166 39.5834V-2.41664H-6.58337V39.5834H35.4166ZM35.4166 45.8334H-6.58337V87.8334H35.4166V45.8334ZM41.6666 45.8334V87.8334H83.6666V45.8334H41.6666ZM4.16663 4.16669V46.1667H12.5V4.16669V-37.8333H4.16663V4.16669ZM12.5 4.16669H-29.5V12.5H12.5H54.5V4.16669H12.5ZM12.5 12.5V54.5H45.8333V12.5V-29.5H12.5V12.5ZM45.8333 12.5H3.8333V35.4167H45.8333H87.8333V12.5H45.8333ZM45.8333 35.4167V-6.58331H8.33329V35.4167V77.4167H45.8333V35.4167ZM8.33329 35.4167H50.3333V8.33335H8.33329H-33.6667V35.4167H8.33329ZM8.33329 8.33335V-33.6666H4.16663V8.33335V50.3334H8.33329V8.33335ZM4.16663 8.33335H46.1666V4.16669H4.16663H-37.8334V8.33335H4.16663ZM12.5 31.25V73.25H41.6666V31.25V-10.75H12.5V31.25ZM41.6666 31.25H83.6666V16.6667H41.6666H-0.333371V31.25H41.6666ZM41.6666 16.6667V-25.3333H12.5V16.6667V58.6667H41.6666V16.6667ZM12.5 16.6667H-29.5V31.25H12.5H54.5V16.6667H12.5ZM12.5 39.5834V81.5834H18.75V39.5834V-2.41664H12.5V39.5834ZM18.75 39.5834H-23.25V45.8334H18.75H60.75V39.5834H18.75ZM18.75 45.8334V3.83336H12.5V45.8334V87.8334H18.75V45.8334ZM12.5 45.8334H54.5V39.5834H12.5H-29.5V45.8334H12.5ZM41.6666 39.5834V-2.41664H35.4166V39.5834V81.5834H41.6666V39.5834ZM35.4166 39.5834H-6.58337V45.8334H35.4166H77.4166V39.5834H35.4166ZM35.4166 45.8334V87.8334H41.6666V45.8334V3.83336H35.4166V45.8334ZM41.6666 45.8334H83.6666V39.5834H41.6666H-0.333371V45.8334H41.6666Z" fill="white" mask="url(#path-1-inside-1_1_51)"/>
</svg>
