<svg width="35" height="35" viewBox="0 0 35 35" fill="none" xmlns="http://www.w3.org/2000/svg">
<path d="M22.6088 19.6904H13.8568V22.6077H22.6088V19.6904Z" fill="white"/>
<path d="M32.8195 15.3145V12.3972H31.3607V9.47982H29.9021V8.02117H28.4435V6.5625H22.6088V8.02117H13.8568V6.5625H8.02216V8.02117H6.56349V9.47982H5.10482V12.3972H3.64617V15.3145H2.1875V26.9838H3.64617V28.4425H8.02216V26.9838H9.48083V25.5252H10.9395V24.0664H12.3982V19.6904H13.8568V18.2318H22.6088V19.6904H24.0675V24.0664H25.5261V25.5252H26.9849V26.9838H28.4435V28.4425H32.8195V26.9838H34.2781V15.3145H32.8195ZM8.02216 12.3972V10.9385H9.48083V9.47982H10.9395V10.9385H12.3982V12.3972H13.8568V13.8558H12.3982V15.3145H10.9395V16.7732H9.48083V15.3145H8.02216V13.8558H6.56349V12.3972H8.02216ZM19.6914 13.8558H18.2328V15.3145H16.7742V13.8558H15.3154V12.3972H16.7742V10.9385H18.2328V12.3972H19.6914V13.8558ZM29.9021 15.3145H26.9849V18.2318H24.0675V15.3145H21.1502V12.3972H24.0675V9.47982H26.9849V12.3972H29.9021V15.3145Z" fill="white"/>
<path d="M26.9849 12.3973H24.0675V15.3146H26.9849V12.3973Z" fill="white"/>
</svg>
