<svg width="281" height="49" viewBox="0 0 281 49" fill="none" xmlns="http://www.w3.org/2000/svg">
<mask id="path-1-outside-1_1_53" maskUnits="userSpaceOnUse" x="-1.62958" y="0.0567699" width="284.189" height="48.8528" fill="black">
<rect fill="white" x="-1.62958" y="0.0567699" width="284.189" height="48.8528"/>
<path d="M11.0962 15.8928L27.4262 15.3226L31.1878 19.6019L29.8458 29.0785L25.6084 32.9528L13.7976 33.3652L12.5182 42.4594L7.35333 42.6398L11.0962 15.8928ZM23.5204 28.691L25.031 27.3075L25.9149 21.0408L24.7671 19.7501L15.6527 20.0684L14.4059 29.0093L23.5204 28.691ZM32.1581 37.0587L34.6882 19.1375L39.2934 14.9082L52.965 14.4307L57.0018 18.9666L54.4404 37.0791L49.9438 41.1525L36.1962 41.6325L32.1581 37.0587ZM47.3974 36.8307L49.6084 34.8143L51.5915 20.8286L49.9288 18.9475L41.7638 19.2326L39.5528 21.249L37.5317 35.236L39.1944 37.1172L47.3974 36.8307ZM81.2065 25.9161L78.4065 28.4854L80.5947 31.2607L79.3453 40.1257L74.1804 40.3061L75.2731 32.3971L73.5212 30.1389L65.0903 30.4333L63.6608 40.6735L58.496 40.8538L62.2388 14.1069L78.5689 13.5366L82.3305 17.816L81.2065 25.9161ZM65.7013 26.1534L74.8158 25.8351L76.3264 24.4515L77.0575 19.2549L75.9098 17.9641L66.7953 18.2824L65.7013 26.1534ZM84.3762 35.2352L86.9063 17.314L91.5116 13.0847L105.183 12.6072L109.22 17.1431L106.659 35.2556L102.162 39.329L88.4143 39.809L84.3762 35.2352ZM99.6156 35.0072L101.827 32.9908L103.81 19.0051L102.147 17.124L93.982 17.4091L91.771 19.4255L89.7499 33.4125L91.4126 35.2937L99.6156 35.0072ZM110.75 34.6184L111.274 31.102L116.363 30.9242L116.023 33.1795L117.092 34.3969L124.916 34.1237L126.39 32.7794L127.033 28.3463L125.964 27.1288L116.204 27.4697L112.404 23.1917L113.374 16.1235L117.723 12.1693L129.686 11.7516L133.523 16.0283L133.039 19.5813L127.95 19.759L128.25 17.4672L127.181 16.2497L119.662 16.5123L118.224 17.8173L117.677 21.7528L118.747 22.9702L128.507 22.6294L132.306 26.9074L131.203 34.5125L126.892 38.4654L114.55 38.8964L110.75 34.6184ZM138.827 11.4324L143.992 11.252L140.211 38.0002L135.047 38.1806L138.827 11.4324ZM156.539 10.8139L161.248 10.6494L167.227 37.0568L161.986 37.2399L160.717 31.3906L151.375 31.7168L148.315 37.7173L143.074 37.9003L156.539 10.8139ZM160.075 27.1544L158.013 17.1122L157.937 17.1149L153.049 27.3998L160.075 27.1544ZM179.244 31.7322L179.918 27.0698L184.931 26.8948L184.473 30.1047L186.135 31.9859L191.186 31.8095L193.251 29.9503L196.146 9.43074L201.311 9.25038L198.11 31.9099L193.505 36.1392L183.441 36.4906L179.244 31.7322ZM202.984 30.9412L206.061 9.0845L211.226 8.90414L208.363 29.2705L210.026 31.1516L217.431 30.893L219.642 28.8766L222.505 8.51027L227.67 8.3299L224.503 30.8742L219.75 35.2227L207.18 35.6617L202.984 30.9412ZM239.316 7.92321L244.025 7.75877L250.005 34.1662L244.764 34.3492L243.495 28.4999L234.153 28.8262L231.092 34.8266L225.851 35.0096L239.316 7.92321ZM242.853 24.2637L240.791 14.2216L240.715 14.2242L235.827 24.5091L242.853 24.2637ZM251.675 29.2029L252.349 24.5405L257.361 24.3655L256.903 27.5754L258.566 29.4565L263.617 29.2801L265.681 27.421L268.577 6.90141L273.742 6.72105L270.541 29.3806L265.935 33.6099L255.871 33.9613L251.675 29.2029Z"/>
</mask>
<path d="M11.0962 15.8928L27.4262 15.3226L31.1878 19.6019L29.8458 29.0785L25.6084 32.9528L13.7976 33.3652L12.5182 42.4594L7.35333 42.6398L11.0962 15.8928ZM23.5204 28.691L25.031 27.3075L25.9149 21.0408L24.7671 19.7501L15.6527 20.0684L14.4059 29.0093L23.5204 28.691ZM32.1581 37.0587L34.6882 19.1375L39.2934 14.9082L52.965 14.4307L57.0018 18.9666L54.4404 37.0791L49.9438 41.1525L36.1962 41.6325L32.1581 37.0587ZM47.3974 36.8307L49.6084 34.8143L51.5915 20.8286L49.9288 18.9475L41.7638 19.2326L39.5528 21.249L37.5317 35.236L39.1944 37.1172L47.3974 36.8307ZM81.2065 25.9161L78.4065 28.4854L80.5947 31.2607L79.3453 40.1257L74.1804 40.3061L75.2731 32.3971L73.5212 30.1389L65.0903 30.4333L63.6608 40.6735L58.496 40.8538L62.2388 14.1069L78.5689 13.5366L82.3305 17.816L81.2065 25.9161ZM65.7013 26.1534L74.8158 25.8351L76.3264 24.4515L77.0575 19.2549L75.9098 17.9641L66.7953 18.2824L65.7013 26.1534ZM84.3762 35.2352L86.9063 17.314L91.5116 13.0847L105.183 12.6072L109.22 17.1431L106.659 35.2556L102.162 39.329L88.4143 39.809L84.3762 35.2352ZM99.6156 35.0072L101.827 32.9908L103.81 19.0051L102.147 17.124L93.982 17.4091L91.771 19.4255L89.7499 33.4125L91.4126 35.2937L99.6156 35.0072ZM110.75 34.6184L111.274 31.102L116.363 30.9242L116.023 33.1795L117.092 34.3969L124.916 34.1237L126.39 32.7794L127.033 28.3463L125.964 27.1288L116.204 27.4697L112.404 23.1917L113.374 16.1235L117.723 12.1693L129.686 11.7516L133.523 16.0283L133.039 19.5813L127.95 19.759L128.25 17.4672L127.181 16.2497L119.662 16.5123L118.224 17.8173L117.677 21.7528L118.747 22.9702L128.507 22.6294L132.306 26.9074L131.203 34.5125L126.892 38.4654L114.55 38.8964L110.75 34.6184ZM138.827 11.4324L143.992 11.252L140.211 38.0002L135.047 38.1806L138.827 11.4324ZM156.539 10.8139L161.248 10.6494L167.227 37.0568L161.986 37.2399L160.717 31.3906L151.375 31.7168L148.315 37.7173L143.074 37.9003L156.539 10.8139ZM160.075 27.1544L158.013 17.1122L157.937 17.1149L153.049 27.3998L160.075 27.1544ZM179.244 31.7322L179.918 27.0698L184.931 26.8948L184.473 30.1047L186.135 31.9859L191.186 31.8095L193.251 29.9503L196.146 9.43074L201.311 9.25038L198.11 31.9099L193.505 36.1392L183.441 36.4906L179.244 31.7322ZM202.984 30.9412L206.061 9.0845L211.226 8.90414L208.363 29.2705L210.026 31.1516L217.431 30.893L219.642 28.8766L222.505 8.51027L227.67 8.3299L224.503 30.8742L219.75 35.2227L207.18 35.6617L202.984 30.9412ZM239.316 7.92321L244.025 7.75877L250.005 34.1662L244.764 34.3492L243.495 28.4999L234.153 28.8262L231.092 34.8266L225.851 35.0096L239.316 7.92321ZM242.853 24.2637L240.791 14.2216L240.715 14.2242L235.827 24.5091L242.853 24.2637ZM251.675 29.2029L252.349 24.5405L257.361 24.3655L256.903 27.5754L258.566 29.4565L263.617 29.2801L265.681 27.421L268.577 6.90141L273.742 6.72105L270.541 29.3806L265.935 33.6099L255.871 33.9613L251.675 29.2029Z" fill="white"/>
<path d="M11.0962 15.8928L10.8868 9.89649L5.8522 10.0723L5.15406 15.0613L11.0962 15.8928ZM27.4262 15.3226L31.9327 11.3613L30.0566 9.22706L27.2168 9.32623L27.4262 15.3226ZM31.1878 19.6019L37.1286 20.4432L37.5153 17.7123L35.6943 15.6406L31.1878 19.6019ZM29.8458 29.0785L33.8944 33.5067L35.4844 32.0529L35.7865 29.9198L29.8458 29.0785ZM25.6084 32.9528L25.8178 38.9491L28.0262 38.872L29.657 37.3809L25.6084 32.9528ZM13.7976 33.3652L13.5882 27.3689L8.55737 27.5445L7.85609 32.5293L13.7976 33.3652ZM12.5182 42.4594L12.7276 48.4557L17.7584 48.2801L18.4597 43.2953L12.5182 42.4594ZM7.35333 42.6398L1.41123 41.8082L0.420877 48.8855L7.56273 48.6361L7.35333 42.6398ZM23.5204 28.691L23.7298 34.6874L25.9411 34.6102L27.5728 33.1157L23.5204 28.691ZM25.031 27.3075L29.0835 31.7321L30.6715 30.2777L30.9722 28.1454L25.031 27.3075ZM25.9149 21.0408L31.8561 21.8787L32.2439 19.129L30.3986 17.0538L25.9149 21.0408ZM24.7671 19.7501L29.2508 15.7631L27.3766 13.6553L24.5577 13.7537L24.7671 19.7501ZM15.6527 20.0684L15.4433 14.072L10.4062 14.2479L9.71015 19.2397L15.6527 20.0684ZM14.4059 29.0093L8.46343 28.1807L7.477 35.2549L14.6153 35.0057L14.4059 29.0093ZM11.0962 15.8928L11.3056 21.8892L27.6356 21.3189L27.4262 15.3226L27.2168 9.32623L10.8868 9.89649L11.0962 15.8928ZM27.4262 15.3226L22.9197 19.2839L26.6814 23.5632L31.1878 19.6019L35.6943 15.6406L31.9327 11.3613L27.4262 15.3226ZM31.1878 19.6019L25.2471 18.7606L23.905 28.2372L29.8458 29.0785L35.7865 29.9198L37.1286 20.4432L31.1878 19.6019ZM29.8458 29.0785L25.7971 24.6504L21.5597 28.5246L25.6084 32.9528L29.657 37.3809L33.8944 33.5067L29.8458 29.0785ZM25.6084 32.9528L25.399 26.9564L13.5882 27.3689L13.7976 33.3652L14.007 39.3615L25.8178 38.9491L25.6084 32.9528ZM13.7976 33.3652L7.85609 32.5293L6.57669 41.6235L12.5182 42.4594L18.4597 43.2953L19.7391 34.2011L13.7976 33.3652ZM12.5182 42.4594L12.3088 36.463L7.14394 36.6434L7.35333 42.6398L7.56273 48.6361L12.7276 48.4557L12.5182 42.4594ZM7.35333 42.6398L13.2954 43.4713L17.0383 16.7243L11.0962 15.8928L5.15406 15.0613L1.41123 41.8082L7.35333 42.6398ZM23.5204 28.691L27.5728 33.1157L29.0835 31.7321L25.031 27.3075L20.9786 22.8828L19.4679 24.2664L23.5204 28.691ZM25.031 27.3075L30.9722 28.1454L31.8561 21.8787L25.9149 21.0408L19.9736 20.2029L19.0898 26.4695L25.031 27.3075ZM25.9149 21.0408L30.3986 17.0538L29.2508 15.7631L24.7671 19.7501L20.2834 23.7371L21.4311 25.0278L25.9149 21.0408ZM24.7671 19.7501L24.5577 13.7537L15.4433 14.072L15.6527 20.0684L15.8621 26.0647L24.9765 25.7464L24.7671 19.7501ZM15.6527 20.0684L9.71015 19.2397L8.46343 28.1807L14.4059 29.0093L20.3484 29.8379L21.5952 20.897L15.6527 20.0684ZM14.4059 29.0093L14.6153 35.0057L23.7298 34.6874L23.5204 28.691L23.311 22.6947L14.1965 23.013L14.4059 29.0093ZM32.1581 37.0587L26.217 36.2199L25.8305 38.9573L27.6602 41.0297L32.1581 37.0587ZM34.6882 19.1375L30.6297 14.7183L29.0474 16.1715L28.7471 18.2987L34.6882 19.1375ZM39.2934 14.9082L39.084 8.91182L36.868 8.9892L35.2349 10.489L39.2934 14.9082ZM52.965 14.4307L57.4471 10.4419L55.573 8.33601L52.7557 8.4344L52.965 14.4307ZM57.0018 18.9666L62.9427 19.8068L63.3319 17.0543L61.4839 14.9778L57.0018 18.9666ZM54.4404 37.0791L58.4686 41.5258L60.0773 40.0685L60.3812 37.9192L54.4404 37.0791ZM49.9438 41.1525L50.1532 47.1488L52.3459 47.0722L53.972 45.5992L49.9438 41.1525ZM36.1962 41.6325L31.6983 45.6036L33.5737 47.7278L36.4056 47.6289L36.1962 41.6325ZM47.3974 36.8307L47.6068 42.827L49.8109 42.7501L51.4405 41.2639L47.3974 36.8307ZM49.6084 34.8143L53.6514 39.2475L55.246 37.7933L55.549 35.6567L49.6084 34.8143ZM51.5915 20.8286L57.5321 21.6709L57.9208 18.9296L56.0871 16.855L51.5915 20.8286ZM49.9288 18.9475L54.4245 14.9739L52.5493 12.8523L49.7194 12.9511L49.9288 18.9475ZM41.7638 19.2326L41.5544 13.2362L39.3503 13.3132L37.7207 14.7993L41.7638 19.2326ZM39.5528 21.249L35.5098 16.8157L33.9218 18.2639L33.6145 20.3909L39.5528 21.249ZM37.5317 35.236L31.5934 34.378L31.1961 37.1278L33.0361 39.2096L37.5317 35.236ZM39.1944 37.1171L34.6988 41.0907L36.574 43.2123L39.4038 43.1135L39.1944 37.1171ZM32.1581 37.0587L38.0992 37.8974L40.6293 19.9762L34.6882 19.1375L28.7471 18.2987L26.217 36.2199L32.1581 37.0587ZM34.6882 19.1375L38.7466 23.5566L43.3518 19.3273L39.2934 14.9082L35.2349 10.489L30.6297 14.7183L34.6882 19.1375ZM39.2934 14.9082L39.5028 20.9045L53.1744 20.4271L52.965 14.4307L52.7557 8.4344L39.084 8.91182L39.2934 14.9082ZM52.965 14.4307L48.483 18.4196L52.5197 22.9555L57.0018 18.9666L61.4839 14.9778L57.4471 10.4419L52.965 14.4307ZM57.0018 18.9666L51.0609 18.1265L48.4995 36.2389L54.4404 37.0791L60.3812 37.9192L62.9427 19.8068L57.0018 18.9666ZM54.4404 37.0791L50.4121 32.6323L45.9155 36.7057L49.9438 41.1525L53.972 45.5992L58.4686 41.5258L54.4404 37.0791ZM49.9438 41.1525L49.7344 35.1561L35.9868 35.6362L36.1962 41.6325L36.4056 47.6289L50.1532 47.1488L49.9438 41.1525ZM36.1962 41.6325L40.6941 37.6615L36.656 33.0877L32.1581 37.0587L27.6602 41.0297L31.6983 45.6036L36.1962 41.6325ZM47.3974 36.8307L51.4405 41.2639L53.6514 39.2475L49.6084 34.8143L45.5653 30.3811L43.3543 32.3975L47.3974 36.8307ZM49.6084 34.8143L55.549 35.6567L57.5321 21.6709L51.5915 20.8286L45.6509 19.9862L43.6678 33.972L49.6084 34.8143ZM51.5915 20.8286L56.0871 16.855L54.4245 14.9739L49.9288 18.9475L45.4332 22.921L47.0958 24.8021L51.5915 20.8286ZM49.9288 18.9475L49.7194 12.9511L41.5544 13.2362L41.7638 19.2326L41.9732 25.2289L50.1382 24.9438L49.9288 18.9475ZM41.7638 19.2326L37.7207 14.7993L35.5098 16.8157L39.5528 21.249L43.5959 25.6822L45.8069 23.6658L41.7638 19.2326ZM39.5528 21.249L33.6145 20.3909L31.5934 34.378L37.5317 35.236L43.4701 36.0941L45.4912 22.107L39.5528 21.249ZM37.5317 35.236L33.0361 39.2096L34.6988 41.0907L39.1944 37.1171L43.69 33.1436L42.0274 31.2625L37.5317 35.236ZM39.1944 37.1171L39.4038 43.1135L47.6068 42.827L47.3974 36.8307L47.188 30.8343L38.985 31.1208L39.1944 37.1171ZM81.2065 25.9161L85.2631 30.337L86.853 28.8781L87.1496 26.7408L81.2065 25.9161ZM78.4065 28.4854L74.3499 24.0645L70.2479 27.8285L73.6948 32.2003L78.4065 28.4854ZM80.5947 31.2607L86.5359 32.0981L86.8938 29.5592L85.3063 27.5459L80.5947 31.2607ZM79.3453 40.1257L79.5547 46.1221L84.5842 45.9464L85.2866 40.9631L79.3453 40.1257ZM74.1804 40.3061L68.2369 39.485L67.2606 46.5514L74.3898 46.3024L74.1804 40.3061ZM75.2731 32.3971L81.2166 33.2183L81.5624 30.7156L80.0138 28.7194L75.2731 32.3971ZM73.5212 30.1389L78.2619 26.4612L76.3801 24.0354L73.3118 24.1426L73.5212 30.1389ZM65.0903 30.4333L64.8809 24.437L59.8447 24.6128L59.148 29.6038L65.0903 30.4333ZM63.6608 40.6735L63.8702 46.6698L68.9065 46.4939L69.6032 41.503L63.6608 40.6735ZM58.496 40.8538L52.5539 40.0223L51.5635 47.0996L58.7054 46.8502L58.496 40.8538ZM62.2388 14.1069L62.0294 8.11055L56.9949 8.28636L56.2967 13.2754L62.2388 14.1069ZM78.5689 13.5366L83.0753 9.57534L81.1993 7.44112L78.3595 7.54029L78.5689 13.5366ZM82.3305 17.816L88.2736 18.6406L88.6513 15.9187L86.837 13.8547L82.3305 17.816ZM65.7013 26.1534L59.7585 25.3274L58.7756 32.3989L65.9107 32.1497L65.7013 26.1534ZM74.8158 25.8351L75.0252 31.8315L77.2365 31.7542L78.8682 30.2598L74.8158 25.8351ZM76.3264 24.4515L80.3789 28.8762L81.9678 27.421L82.2679 25.2874L76.3264 24.4515ZM77.0575 19.2549L82.999 20.0907L83.3857 17.3421L81.5412 15.2679L77.0575 19.2549ZM75.9098 17.9641L80.3935 13.9771L78.5192 11.8694L75.7004 11.9678L75.9098 17.9641ZM66.7953 18.2824L66.5859 12.2861L61.5466 12.4621L60.8524 17.4564L66.7953 18.2824ZM81.2065 25.9161L77.1499 21.4952L74.3499 24.0645L78.4065 28.4854L82.463 32.9063L85.2631 30.337L81.2065 25.9161ZM78.4065 28.4854L73.6948 32.2003L75.883 34.9756L80.5947 31.2607L85.3063 27.5459L83.1181 24.7705L78.4065 28.4854ZM80.5947 31.2607L74.6534 30.4234L73.404 39.2884L79.3453 40.1257L85.2866 40.9631L86.5359 32.0981L80.5947 31.2607ZM79.3453 40.1257L79.1359 34.1294L73.971 34.3098L74.1804 40.3061L74.3898 46.3024L79.5547 46.1221L79.3453 40.1257ZM74.1804 40.3061L80.124 41.1272L81.2166 33.2183L75.2731 32.3971L69.3295 31.576L68.2369 39.485L74.1804 40.3061ZM75.2731 32.3971L80.0138 28.7194L78.2619 26.4612L73.5212 30.1389L68.7805 33.8166L70.5324 36.0749L75.2731 32.3971ZM73.5212 30.1389L73.3118 24.1426L64.8809 24.437L65.0903 30.4333L65.2997 36.4297L73.7306 36.1353L73.5212 30.1389ZM65.0903 30.4333L59.148 29.6038L57.7185 39.8439L63.6608 40.6735L69.6032 41.503L71.0327 31.2629L65.0903 30.4333ZM63.6608 40.6735L63.4514 34.6771L58.2866 34.8575L58.496 40.8538L58.7054 46.8502L63.8702 46.6698L63.6608 40.6735ZM58.496 40.8538L64.4381 41.6853L68.1809 14.9384L62.2388 14.1069L56.2967 13.2754L52.5539 40.0223L58.496 40.8538ZM62.2388 14.1069L62.4482 20.1032L78.7783 19.533L78.5689 13.5366L78.3595 7.54029L62.0294 8.11055L62.2388 14.1069ZM78.5689 13.5366L74.0624 17.4979L77.824 21.7773L82.3305 17.816L86.837 13.8547L83.0753 9.57534L78.5689 13.5366ZM82.3305 17.816L76.3874 16.9913L75.2635 25.0915L81.2065 25.9161L87.1496 26.7408L88.2736 18.6406L82.3305 17.816ZM65.7013 26.1534L65.9107 32.1497L75.0252 31.8315L74.8158 25.8351L74.6064 19.8388L65.4919 20.157L65.7013 26.1534ZM74.8158 25.8351L78.8682 30.2598L80.3789 28.8762L76.3264 24.4515L72.274 20.0269L70.7633 21.4105L74.8158 25.8351ZM76.3264 24.4515L82.2679 25.2874L82.999 20.0907L77.0575 19.2549L71.116 18.419L70.3849 23.6157L76.3264 24.4515ZM77.0575 19.2549L81.5412 15.2679L80.3935 13.9771L75.9098 17.9641L71.426 21.9511L72.5738 23.2419L77.0575 19.2549ZM75.9098 17.9641L75.7004 11.9678L66.5859 12.2861L66.7953 18.2824L67.0047 24.2788L76.1192 23.9605L75.9098 17.9641ZM66.7953 18.2824L60.8524 17.4564L59.7585 25.3274L65.7013 26.1534L71.6442 26.9794L72.7382 19.1084L66.7953 18.2824ZM84.3762 35.2352L78.4352 34.3964L78.0487 37.1338L79.8784 39.2062L84.3762 35.2352ZM86.9063 17.314L82.8479 12.8948L81.2656 14.348L80.9653 16.4752L86.9063 17.314ZM91.5115 13.0847L91.3022 7.08832L89.0862 7.1657L87.4531 8.6655L91.5115 13.0847ZM105.183 12.6072L109.665 8.61838L107.791 6.51251L104.974 6.6109L105.183 12.6072ZM109.22 17.1431L115.161 17.9833L115.55 15.2308L113.702 13.1543L109.22 17.1431ZM106.659 35.2556L110.687 39.7023L112.295 38.245L112.599 36.0957L106.659 35.2556ZM102.162 39.329L102.371 45.3253L104.564 45.2487L106.19 43.7757L102.162 39.329ZM88.4143 39.809L83.9164 43.7801L85.7918 45.9043L88.6237 45.8054L88.4143 39.809ZM99.6156 35.0072L99.825 41.0035L102.029 40.9266L103.659 39.4404L99.6156 35.0072ZM101.827 32.9908L105.87 37.424L107.464 35.9698L107.767 33.8332L101.827 32.9908ZM103.81 19.0051L109.75 19.8474L110.139 17.1061L108.305 15.0315L103.81 19.0051ZM102.147 17.124L106.643 13.1504L104.767 11.0288L101.938 11.1276L102.147 17.124ZM93.982 17.4091L93.7726 11.4127L91.5685 11.4897L89.9389 12.9758L93.982 17.4091ZM91.771 19.4255L87.7279 14.9922L86.14 16.4404L85.8327 18.5674L91.771 19.4255ZM89.7499 33.4125L83.8116 32.5545L83.4142 35.3043L85.2543 37.3861L89.7499 33.4125ZM91.4126 35.2937L86.9169 39.2672L88.7921 41.3888L91.622 41.29L91.4126 35.2937ZM84.3762 35.2352L90.3173 36.0739L92.8474 18.1527L86.9063 17.314L80.9653 16.4752L78.4352 34.3964L84.3762 35.2352ZM86.9063 17.314L90.9648 21.7331L95.57 17.5038L91.5115 13.0847L87.4531 8.6655L82.8479 12.8948L86.9063 17.314ZM91.5115 13.0847L91.7209 19.081L105.393 18.6036L105.183 12.6072L104.974 6.6109L91.3022 7.08832L91.5115 13.0847ZM105.183 12.6072L100.701 16.5961L104.738 21.132L109.22 17.1431L113.702 13.1543L109.665 8.61838L105.183 12.6072ZM109.22 17.1431L103.279 16.303L100.718 34.4154L106.659 35.2556L112.599 36.0957L115.161 17.9833L109.22 17.1431ZM106.659 35.2556L102.63 30.8088L98.1337 34.8822L102.162 39.329L106.19 43.7757L110.687 39.7023L106.659 35.2556ZM102.162 39.329L101.953 33.3326L88.2049 33.8127L88.4143 39.809L88.6237 45.8054L102.371 45.3253L102.162 39.329ZM88.4143 39.809L92.9122 35.838L88.8741 31.2642L84.3762 35.2352L79.8784 39.2062L83.9164 43.7801L88.4143 39.809ZM99.6156 35.0072L103.659 39.4404L105.87 37.424L101.827 32.9908L97.7835 28.5576L95.5725 30.574L99.6156 35.0072ZM101.827 32.9908L107.767 33.8332L109.75 19.8474L103.81 19.0051L97.8691 18.1627L95.886 32.1485L101.827 32.9908ZM103.81 19.0051L108.305 15.0315L106.643 13.1504L102.147 17.124L97.6514 21.0975L99.314 22.9786L103.81 19.0051ZM102.147 17.124L101.938 11.1276L93.7726 11.4127L93.982 17.4091L94.1914 23.4054L102.356 23.1203L102.147 17.124ZM93.982 17.4091L89.9389 12.9758L87.7279 14.9922L91.771 19.4255L95.8141 23.8587L98.025 21.8423L93.982 17.4091ZM91.771 19.4255L85.8327 18.5674L83.8116 32.5545L89.7499 33.4125L95.6882 34.2706L97.7093 20.2835L91.771 19.4255ZM89.7499 33.4125L85.2543 37.3861L86.9169 39.2672L91.4126 35.2937L95.9082 31.3201L94.2456 29.439L89.7499 33.4125ZM91.4126 35.2937L91.622 41.29L99.825 41.0035L99.6156 35.0072L99.4062 29.0109L91.2032 29.2973L91.4126 35.2937ZM110.75 34.6184L104.816 33.7347L104.403 36.5071L106.264 38.6028L110.75 34.6184ZM111.274 31.102L111.064 25.1056L106.075 25.2799L105.339 30.2183L111.274 31.102ZM116.363 30.9242L122.296 31.8174L123.371 24.6759L116.153 24.9279L116.363 30.9242ZM116.023 33.1795L110.09 32.2863L109.675 35.0435L111.515 37.1386L116.023 33.1795ZM117.092 34.3969L112.584 38.3561L114.46 40.4925L117.302 40.3932L117.092 34.3969ZM124.916 34.1237L125.125 40.12L127.329 40.0431L128.959 38.5569L124.916 34.1237ZM126.39 32.7794L130.433 37.2127L132.019 35.7661L132.327 33.6416L126.39 32.7794ZM127.033 28.3463L132.971 29.2084L133.369 26.4679L131.542 24.3871L127.033 28.3463ZM125.964 27.1288L130.472 23.1697L128.596 21.0333L125.755 21.1325L125.964 27.1288ZM116.204 27.4697L111.718 31.4541L113.592 33.5645L116.413 33.466L116.204 27.4697ZM112.404 23.1917L106.46 22.376L106.085 25.1116L107.918 27.1761L112.404 23.1917ZM113.374 16.1235L109.338 11.6843L107.726 13.1498L107.43 15.3078L113.374 16.1235ZM117.723 12.1693L117.514 6.173L115.315 6.24979L113.686 7.73014L117.723 12.1693ZM129.686 11.7516L134.151 7.7444L132.279 5.65739L129.476 5.75525L129.686 11.7516ZM133.523 16.0283L139.468 16.8386L139.843 14.0876L137.989 12.0211L133.523 16.0283ZM133.039 19.5813L133.248 25.5777L138.301 25.4012L138.984 20.3917L133.039 19.5813ZM127.95 19.759L122.001 18.9798L121.081 26.0026L128.16 25.7554L127.95 19.759ZM128.25 17.4672L134.199 18.2464L134.553 15.5508L132.759 13.508L128.25 17.4672ZM127.181 16.2497L131.689 12.2906L129.813 10.1542L126.972 10.2534L127.181 16.2497ZM119.662 16.5123L119.452 10.516L117.256 10.5927L115.629 12.0701L119.662 16.5123ZM118.224 17.8173L114.191 13.375L112.581 14.837L112.282 16.9913L118.224 17.8173ZM117.677 21.7528L111.735 20.9268L111.356 23.6478L113.169 25.712L117.677 21.7528ZM118.747 22.9702L114.238 26.9294L116.114 29.0658L118.956 28.9665L118.747 22.9702ZM128.507 22.6294L132.993 18.645L131.118 16.5345L128.297 16.633L128.507 22.6294ZM132.306 26.9074L138.244 27.7688L138.645 25.0084L136.792 22.923L132.306 26.9074ZM131.203 34.5125L135.258 38.9347L136.834 37.4897L137.141 35.3739L131.203 34.5125ZM126.892 38.4654L127.102 44.4617L129.315 44.3844L130.947 42.8876L126.892 38.4654ZM114.55 38.8964L110.064 42.8808L111.938 44.9912L114.759 44.8927L114.55 38.8964ZM110.75 34.6184L116.685 35.502L117.208 31.9856L111.274 31.102L105.339 30.2183L104.816 33.7347L110.75 34.6184ZM111.274 31.102L111.483 37.0983L116.572 36.9206L116.363 30.9242L116.153 24.9279L111.064 25.1056L111.274 31.102ZM116.363 30.9242L110.43 30.0311L110.09 32.2863L116.023 33.1795L121.956 34.0726L122.296 31.8174L116.363 30.9242ZM116.023 33.1795L111.515 37.1386L112.584 38.3561L117.092 34.3969L121.601 30.4377L120.532 29.2203L116.023 33.1795ZM117.092 34.3969L117.302 40.3932L125.125 40.12L124.916 34.1237L124.706 28.1274L116.883 28.4005L117.092 34.3969ZM124.916 34.1237L128.959 38.5569L130.433 37.2127L126.39 32.7794L122.346 28.3462L120.873 29.6905L124.916 34.1237ZM126.39 32.7794L132.327 33.6416L132.971 29.2084L127.033 28.3463L121.095 27.4841L120.452 31.9173L126.39 32.7794ZM127.033 28.3463L131.542 24.3871L130.472 23.1697L125.964 27.1288L121.456 31.088L122.525 32.3055L127.033 28.3463ZM125.964 27.1288L125.755 21.1325L115.995 21.4733L116.204 27.4697L116.413 33.466L126.173 33.1252L125.964 27.1288ZM116.204 27.4697L120.69 23.4853L116.89 19.2073L112.404 23.1917L107.918 27.1761L111.718 31.4541L116.204 27.4697ZM112.404 23.1917L118.349 24.0074L119.319 16.9392L113.374 16.1235L107.43 15.3078L106.46 22.376L112.404 23.1917ZM113.374 16.1235L117.411 20.5627L121.76 16.6085L117.723 12.1693L113.686 7.73014L109.338 11.6843L113.374 16.1235ZM117.723 12.1693L117.932 18.1657L129.895 17.7479L129.686 11.7516L129.476 5.75525L117.514 6.173L117.723 12.1693ZM129.686 11.7516L125.22 15.7588L129.058 20.0355L133.523 16.0283L137.989 12.0211L134.151 7.7444L129.686 11.7516ZM133.523 16.0283L127.578 15.2179L127.094 18.771L133.039 19.5813L138.984 20.3917L139.468 16.8386L133.523 16.0283ZM133.039 19.5813L132.83 13.585L127.741 13.7627L127.95 19.759L128.16 25.7554L133.248 25.5777L133.039 19.5813ZM127.95 19.759L133.899 20.5383L134.199 18.2464L128.25 17.4672L122.301 16.6879L122.001 18.9798L127.95 19.759ZM128.25 17.4672L132.759 13.508L131.689 12.2906L127.181 16.2497L122.673 20.2089L123.742 21.4263L128.25 17.4672ZM127.181 16.2497L126.972 10.2534L119.452 10.516L119.662 16.5123L119.871 22.5087L127.391 22.2461L127.181 16.2497ZM119.662 16.5123L115.629 12.0701L114.191 13.375L118.224 17.8173L122.258 22.2596L123.695 20.9546L119.662 16.5123ZM118.224 17.8173L112.282 16.9913L111.735 20.9268L117.677 21.7528L123.62 22.5788L124.167 18.6433L118.224 17.8173ZM117.677 21.7528L113.169 25.712L114.238 26.9294L118.747 22.9702L123.255 19.011L122.186 17.7936L117.677 21.7528ZM118.747 22.9702L118.956 28.9665L128.716 28.6257L128.507 22.6294L128.297 16.633L118.537 16.9739L118.747 22.9702ZM128.507 22.6294L124.021 26.6138L127.82 30.8918L132.306 26.9074L136.792 22.923L132.993 18.645L128.507 22.6294ZM132.306 26.9074L126.368 26.046L125.265 33.6511L131.203 34.5125L137.141 35.3739L138.244 27.7688L132.306 26.9074ZM131.203 34.5125L127.148 30.0903L122.837 34.0431L126.892 38.4654L130.947 42.8876L135.258 38.9347L131.203 34.5125ZM126.892 38.4654L126.683 32.469L114.34 32.9L114.55 38.8964L114.759 44.8927L127.102 44.4617L126.892 38.4654ZM114.55 38.8964L119.036 34.912L115.236 30.634L110.75 34.6184L106.264 38.6028L110.064 42.8808L114.55 38.8964ZM138.827 11.4324L138.618 5.43601L133.591 5.61158L132.886 10.5926L138.827 11.4324ZM143.992 11.252L149.933 12.0917L150.935 5.0059L143.783 5.25565L143.992 11.252ZM140.211 38.0002L140.421 43.9966L145.448 43.821L146.152 38.84L140.211 38.0002ZM135.047 38.1806L129.106 37.3409L128.104 44.4267L135.256 44.1769L135.047 38.1806ZM138.827 11.4324L139.037 17.4287L144.202 17.2483L143.992 11.252L143.783 5.25565L138.618 5.43601L138.827 11.4324ZM143.992 11.252L138.051 10.4123L134.271 37.1605L140.211 38.0002L146.152 38.84L149.933 12.0917L143.992 11.252ZM140.211 38.0002L140.002 32.0039L134.837 32.1843L135.047 38.1806L135.256 44.1769L140.421 43.9966L140.211 38.0002ZM135.047 38.1806L140.988 39.0203L144.768 12.2721L138.827 11.4324L132.886 10.5926L129.106 37.3409L135.047 38.1806ZM156.539 10.8139L156.329 4.81753L152.757 4.94227L151.166 8.14302L156.539 10.8139ZM161.248 10.6494L167.1 9.32443L166.003 4.47972L161.038 4.65308L161.248 10.6494ZM167.227 37.0568L167.436 43.0532L174.679 42.8003L173.079 35.7318L167.227 37.0568ZM161.986 37.2399L156.123 38.5119L157.185 43.4112L162.196 43.2362L161.986 37.2399ZM160.717 31.3906L166.581 30.1186L165.518 25.2193L160.508 25.3942L160.717 31.3906ZM151.375 31.7168L151.166 25.7205L147.635 25.8438L146.03 28.9907L151.375 31.7168ZM148.315 37.7173L148.524 43.7136L152.054 43.5903L153.659 40.4434L148.315 37.7173ZM143.074 37.9003L137.701 35.2294L133.218 44.2481L143.283 43.8966L143.074 37.9003ZM160.075 27.1544L160.284 33.1508L167.38 32.903L165.952 25.9477L160.075 27.1544ZM158.013 17.1122L163.891 15.9056L162.871 10.9389L157.804 11.1159L158.013 17.1122ZM157.937 17.1149L157.728 11.1185L154.084 11.2458L152.518 14.5394L157.937 17.1149ZM153.049 27.3998L147.63 24.8242L143.393 33.7406L153.259 33.3961L153.049 27.3998ZM156.539 10.8139L156.748 16.8102L161.457 16.6458L161.248 10.6494L161.038 4.65308L156.329 4.81753L156.539 10.8139ZM161.248 10.6494L155.396 11.9744L161.375 38.3818L167.227 37.0568L173.079 35.7318L167.1 9.32443L161.248 10.6494ZM167.227 37.0568L167.018 31.0605L161.777 31.2435L161.986 37.2399L162.196 43.2362L167.436 43.0532L167.227 37.0568ZM161.986 37.2399L167.85 35.9678L166.581 30.1186L160.717 31.3906L154.854 32.6626L156.123 38.5119L161.986 37.2399ZM160.717 31.3906L160.508 25.3942L151.166 25.7205L151.375 31.7168L151.584 37.7132L160.927 37.3869L160.717 31.3906ZM151.375 31.7168L146.03 28.9907L142.97 34.9912L148.315 37.7173L153.659 40.4434L156.72 34.4429L151.375 31.7168ZM148.315 37.7173L148.105 31.7209L142.864 31.9039L143.074 37.9003L143.283 43.8966L148.524 43.7136L148.315 37.7173ZM143.074 37.9003L148.446 40.5711L161.911 13.4847L156.539 10.8139L151.166 8.14302L137.701 35.2294L143.074 37.9003ZM160.075 27.1544L165.952 25.9477L163.891 15.9056L158.013 17.1122L152.136 18.3189L154.198 28.3611L160.075 27.1544ZM158.013 17.1122L157.804 11.1159L157.728 11.1185L157.937 17.1149L158.147 23.1112L158.223 23.1086L158.013 17.1122ZM157.937 17.1149L152.518 14.5394L147.63 24.8242L153.049 27.3998L158.468 29.9753L163.356 19.6904L157.937 17.1149ZM153.049 27.3998L153.259 33.3961L160.284 33.1508L160.075 27.1544L159.866 21.1581L152.84 21.4034L153.049 27.3998ZM179.244 31.7322L173.306 30.8741L172.909 33.62L174.744 35.7009L179.244 31.7322ZM179.918 27.0698L179.709 21.0735L174.697 21.2485L173.98 26.2118L179.918 27.0698ZM184.931 26.8948L190.871 27.7428L191.884 20.6483L184.722 20.8984L184.931 26.8948ZM184.473 30.1047L178.533 29.2568L178.141 32.0012L179.977 34.0783L184.473 30.1047ZM186.135 31.9859L181.64 35.9594L183.515 38.081L186.345 37.9822L186.135 31.9859ZM191.186 31.8095L191.396 37.8058L193.579 37.7296L195.202 36.2679L191.186 31.8095ZM193.251 29.9503L197.266 34.4087L198.887 32.9488L199.192 30.7887L193.251 29.9503ZM196.146 9.43074L195.937 3.43439L190.908 3.61L190.205 8.59235L196.146 9.43074ZM201.311 9.25038L207.252 10.0897L208.253 3.0043L201.102 3.25403L201.311 9.25038ZM198.11 31.9099L202.169 36.3291L203.751 34.8761L204.051 32.7492L198.11 31.9099ZM193.505 36.1392L193.714 42.1355L195.93 42.0582L197.563 40.5584L193.505 36.1392ZM183.441 36.4906L178.941 40.4593L180.817 42.5859L183.65 42.487L183.441 36.4906ZM179.244 31.7322L185.183 32.5903L185.856 27.9279L179.918 27.0698L173.98 26.2118L173.306 30.8741L179.244 31.7322ZM179.918 27.0698L180.127 33.0662L185.14 32.8911L184.931 26.8948L184.722 20.8984L179.709 21.0735L179.918 27.0698ZM184.931 26.8948L178.991 26.0468L178.533 29.2568L184.473 30.1047L190.413 30.9527L190.871 27.7428L184.931 26.8948ZM184.473 30.1047L179.977 34.0783L181.64 35.9594L186.135 31.9859L190.631 28.0123L188.968 26.1312L184.473 30.1047ZM186.135 31.9859L186.345 37.9822L191.396 37.8058L191.186 31.8095L190.977 25.8131L185.926 25.9895L186.135 31.9859ZM191.186 31.8095L195.202 36.2679L197.266 34.4087L193.251 29.9503L189.235 25.4919L187.171 27.351L191.186 31.8095ZM193.251 29.9503L199.192 30.7887L202.088 10.2691L196.146 9.43074L190.205 8.59235L187.31 29.1119L193.251 29.9503ZM196.146 9.43074L196.356 15.4271L201.521 15.2467L201.311 9.25038L201.102 3.25403L195.937 3.43439L196.146 9.43074ZM201.311 9.25038L195.37 8.41108L192.169 31.0706L198.11 31.9099L204.051 32.7492L207.252 10.0897L201.311 9.25038ZM198.11 31.9099L194.052 27.4907L189.446 31.72L193.505 36.1392L197.563 40.5584L202.169 36.3291L198.11 31.9099ZM193.505 36.1392L193.295 30.1429L183.232 30.4943L183.441 36.4906L183.65 42.487L193.714 42.1355L193.505 36.1392ZM183.441 36.4906L187.941 32.522L183.744 27.7635L179.244 31.7322L174.744 35.7009L178.941 40.4593L183.441 36.4906ZM202.984 30.9412L197.043 30.1047L196.656 32.8528L198.499 34.927L202.984 30.9412ZM206.061 9.0845L205.852 3.08816L200.822 3.26382L200.12 8.24804L206.061 9.0845ZM211.226 8.90414L217.168 9.73937L218.163 2.65824L211.017 2.9078L211.226 8.90414ZM208.363 29.2705L202.422 28.4352L202.037 31.1727L203.868 33.244L208.363 29.2705ZM210.026 31.1516L205.53 35.1251L207.405 37.2467L210.235 37.1479L210.026 31.1516ZM217.431 30.893L217.641 36.8893L219.845 36.8124L221.474 35.3262L217.431 30.893ZM219.642 28.8766L223.685 33.3098L225.283 31.8529L225.584 29.7118L219.642 28.8766ZM222.505 8.51026L222.296 2.51392L217.265 2.68962L216.564 7.67503L222.505 8.51026ZM227.67 8.3299L233.612 9.16462L234.607 2.08402L227.461 2.33356L227.67 8.3299ZM224.503 30.8742L228.553 35.301L230.145 33.845L230.445 31.7089L224.503 30.8742ZM219.75 35.2227L219.959 41.219L222.169 41.1419L223.8 39.6496L219.75 35.2227ZM207.18 35.6617L202.695 39.6475L204.569 41.7565L207.389 41.658L207.18 35.6617ZM202.984 30.9412L208.926 31.7777L212.003 9.92096L206.061 9.0845L200.12 8.24804L197.043 30.1047L202.984 30.9412ZM206.061 9.0845L206.271 15.0808L211.436 14.9005L211.226 8.90414L211.017 2.9078L205.852 3.08816L206.061 9.0845ZM211.226 8.90414L205.285 8.06891L202.422 28.4352L208.363 29.2705L214.305 30.1057L217.168 9.73937L211.226 8.90414ZM208.363 29.2705L203.868 33.244L205.53 35.1251L210.026 31.1516L214.522 27.178L212.859 25.2969L208.363 29.2705ZM210.026 31.1516L210.235 37.1479L217.641 36.8893L217.431 30.893L217.222 24.8966L209.816 25.1552L210.026 31.1516ZM217.431 30.893L221.474 35.3262L223.685 33.3098L219.642 28.8766L215.599 24.4434L213.388 26.4597L217.431 30.893ZM219.642 28.8766L225.584 29.7118L228.447 9.34549L222.505 8.51026L216.564 7.67503L213.701 28.0414L219.642 28.8766ZM222.505 8.51026L222.715 14.5066L227.88 14.3262L227.67 8.3299L227.461 2.33356L222.296 2.51392L222.505 8.51026ZM227.67 8.3299L221.728 7.49519L218.561 30.0395L224.503 30.8742L230.445 31.7089L233.612 9.16462L227.67 8.3299ZM224.503 30.8742L220.453 26.4473L215.7 30.7958L219.75 35.2227L223.8 39.6496L228.553 35.301L224.503 30.8742ZM219.75 35.2227L219.54 29.2264L206.97 29.6653L207.18 35.6617L207.389 41.658L219.959 41.219L219.75 35.2227ZM207.18 35.6617L211.664 31.6758L207.469 26.9554L202.984 30.9412L198.499 34.927L202.695 39.6475L207.18 35.6617ZM239.316 7.92321L239.107 1.92687L235.535 2.05161L233.944 5.25236L239.316 7.92321ZM244.025 7.75877L249.877 6.43377L248.78 1.58906L243.816 1.76242L244.025 7.75877ZM250.005 34.1662L250.214 40.1625L257.457 39.9096L255.857 32.8412L250.005 34.1662ZM244.764 34.3492L238.9 35.6212L239.963 40.5205L244.973 40.3455L244.764 34.3492ZM243.495 28.4999L249.359 27.2279L248.296 22.3286L243.286 22.5036L243.495 28.4999ZM234.153 28.8262L233.943 22.8298L230.413 22.9531L228.808 26.1L234.153 28.8262ZM231.092 34.8266L231.302 40.823L234.832 40.6997L236.437 37.5527L231.092 34.8266ZM225.851 35.0096L220.479 32.3388L215.995 41.3575L226.061 41.006L225.851 35.0096ZM242.853 24.2637L243.062 30.2601L250.158 30.0123L248.73 23.0571L242.853 24.2637ZM240.791 14.2216L246.668 13.0149L245.649 8.04829L240.582 8.22524L240.791 14.2216ZM240.715 14.2242L240.506 8.22789L236.861 8.35516L235.296 11.6487L240.715 14.2242ZM235.827 24.5091L230.408 21.9336L226.17 30.85L236.036 30.5054L235.827 24.5091ZM239.316 7.92321L239.526 13.9196L244.235 13.7551L244.025 7.75877L243.816 1.76242L239.107 1.92687L239.316 7.92321ZM244.025 7.75877L238.174 9.08376L244.153 35.4912L250.005 34.1662L255.857 32.8412L249.877 6.43377L244.025 7.75877ZM250.005 34.1662L249.795 28.1698L244.554 28.3529L244.764 34.3492L244.973 40.3455L250.214 40.1625L250.005 34.1662ZM244.764 34.3492L250.627 33.0772L249.359 27.2279L243.495 28.4999L237.631 29.7719L238.9 35.6212L244.764 34.3492ZM243.495 28.4999L243.286 22.5036L233.943 22.8298L234.153 28.8262L234.362 34.8225L243.704 34.4963L243.495 28.4999ZM234.153 28.8262L228.808 26.1L225.747 32.1005L231.092 34.8266L236.437 37.5527L239.498 31.5523L234.153 28.8262ZM231.092 34.8266L230.883 28.8303L225.642 29.0133L225.851 35.0096L226.061 41.006L231.302 40.823L231.092 34.8266ZM225.851 35.0096L231.224 37.6805L244.689 10.5941L239.316 7.92321L233.944 5.25236L220.479 32.3388L225.851 35.0096ZM242.853 24.2637L248.73 23.0571L246.668 13.0149L240.791 14.2216L234.914 15.4283L236.975 25.4704L242.853 24.2637ZM240.791 14.2216L240.582 8.22524L240.506 8.22789L240.715 14.2242L240.924 20.2206L241 20.2179L240.791 14.2216ZM240.715 14.2242L235.296 11.6487L230.408 21.9336L235.827 24.5091L241.246 27.0846L246.134 16.7998L240.715 14.2242ZM235.827 24.5091L236.036 30.5054L243.062 30.2601L242.853 24.2637L242.643 18.2674L235.618 18.5127L235.827 24.5091ZM251.675 29.2029L245.737 28.3448L245.34 31.0907L247.175 33.1715L251.675 29.2029ZM252.349 24.5405L252.139 18.5442L247.127 18.7192L246.41 23.6824L252.349 24.5405ZM257.361 24.3655L263.301 25.2134L264.314 18.119L257.152 18.3691L257.361 24.3655ZM256.903 27.5754L250.963 26.7274L250.572 29.4718L252.408 31.549L256.903 27.5754ZM258.566 29.4565L254.07 33.4301L255.945 35.5517L258.775 35.4529L258.566 29.4565ZM263.617 29.2801L263.826 35.2765L266.009 35.2003L267.632 33.7386L263.617 29.2801ZM265.681 27.421L269.696 31.8794L271.318 30.4195L271.622 28.2594L265.681 27.421ZM268.577 6.90141L268.367 0.905066L263.339 1.08067L262.636 6.06302L268.577 6.90141ZM273.742 6.72105L279.683 7.56035L280.684 0.474974L273.532 0.724706L273.742 6.72105ZM270.541 29.3806L274.599 33.7997L276.181 32.3468L276.482 30.2199L270.541 29.3806ZM265.935 33.6099L266.145 39.6062L268.361 39.5288L269.994 38.029L265.935 33.6099ZM255.871 33.9613L251.372 37.93L253.247 40.0566L256.081 39.9577L255.871 33.9613ZM251.675 29.2029L257.613 30.0609L258.287 25.3986L252.349 24.5405L246.41 23.6824L245.737 28.3448L251.675 29.2029ZM252.349 24.5405L252.558 30.5369L257.571 30.3618L257.361 24.3655L257.152 18.3691L252.139 18.5442L252.349 24.5405ZM257.361 24.3655L251.422 23.5175L250.963 26.7274L256.903 27.5754L262.843 28.4234L263.301 25.2134L257.361 24.3655ZM256.903 27.5754L252.408 31.549L254.07 33.4301L258.566 29.4565L263.062 25.483L261.399 23.6018L256.903 27.5754ZM258.566 29.4565L258.775 35.4529L263.826 35.2765L263.617 29.2801L263.407 23.2838L258.357 23.4602L258.566 29.4565ZM263.617 29.2801L267.632 33.7386L269.696 31.8794L265.681 27.421L261.666 22.9625L259.602 24.8217L263.617 29.2801ZM265.681 27.421L271.622 28.2594L274.518 7.7398L268.577 6.90141L262.636 6.06302L259.74 26.5826L265.681 27.421ZM268.577 6.90141L268.786 12.8978L273.951 12.7174L273.742 6.72105L273.532 0.724706L268.367 0.905066L268.577 6.90141ZM273.742 6.72105L267.801 5.88175L264.6 28.5413L270.541 29.3806L276.482 30.2199L279.683 7.56035L273.742 6.72105ZM270.541 29.3806L266.482 24.9614L261.877 29.1907L265.935 33.6099L269.994 38.029L274.599 33.7997L270.541 29.3806ZM265.935 33.6099L265.726 27.6135L255.662 27.965L255.871 33.9613L256.081 39.9577L266.145 39.6062L265.935 33.6099ZM255.871 33.9613L260.371 29.9926L256.175 25.2342L251.675 29.2029L247.175 33.1715L251.372 37.93L255.871 33.9613Z" fill="#37B34A" mask="url(#path-1-outside-1_1_53)"/>
</svg>
