<svg width="282" height="73" viewBox="0 0 282 73" fill="none" xmlns="http://www.w3.org/2000/svg">
<mask id="path-1-outside-1_1_59" maskUnits="userSpaceOnUse" x="-0.0649257" y="-3.24315" width="282.133" height="75.7317" fill="black">
<rect fill="white" x="-0.0649257" y="-3.24315" width="282.133" height="75.7317"/>
<path d="M9.81033 15.3895L20.3399 15.0218L22.9968 17.5226L23.202 23.399L20.7029 26.1038L13.4593 26.3568L13.6586 32.0653L10.3966 32.1792L9.81033 15.3895ZM19.1443 23.4206L19.9545 22.5518L19.8171 18.6182L18.9483 17.808L13.1678 18.0099L13.3638 23.6225L19.1443 23.4206ZM25.5666 28.8878L25.173 17.6147L27.835 14.76L36.4697 14.4585L39.3243 17.1205L39.718 28.3936L37.056 31.2483L28.4213 31.5498L25.5666 28.8878ZM35.2319 28.5263L36.4124 27.2603L36.1059 18.4816L34.8399 17.3011L29.6591 17.482L28.4785 18.748L28.7851 27.5266L30.0511 28.7072L35.2319 28.5263ZM55.6949 25.026L55.8892 30.5906L52.6272 30.7045L52.4589 25.8834L50.9636 24.3267L45.7348 24.5093L45.9593 30.9374L42.6973 31.0513L42.111 14.2615L52.6405 13.8938L55.2974 16.3946L55.475 21.4795L53.9018 23.1914L55.6949 25.026ZM45.641 21.8229L51.4215 21.621L52.2316 20.7522L52.1177 17.4902L51.2489 16.6801L45.4684 16.8819L45.641 21.8229ZM58.5465 27.7361L58.1529 16.463L60.8149 13.6083L69.4496 13.3068L72.3042 15.9688L72.6979 27.2419L70.0359 30.0966L61.4012 30.3981L58.5465 27.7361ZM68.2118 27.3746L69.3923 26.1086L69.0858 17.33L67.8198 16.1494L62.639 16.3303L61.4584 17.5963L61.765 26.375L63.031 27.5555L68.2118 27.3746ZM75.2269 27.3217L75.1432 24.9232L78.3572 24.8109L78.4066 26.2261L79.2258 26.99L84.1908 26.8166L84.9778 25.9726L84.8806 23.1903L84.0615 22.4264L77.7053 22.6484L75.0245 20.1484L74.8695 15.7111L77.3695 13.0302L84.9488 12.7656L87.6297 15.2655L87.7143 17.6881L84.5003 17.8003L84.45 16.3612L83.6309 15.5973L78.8818 15.7631L78.1179 16.5823L78.2042 19.0528L79.0233 19.8167L85.3794 19.5947L88.0603 22.0947L88.2253 26.8198L85.6791 29.5503L77.9078 29.8217L75.2269 27.3217ZM90.4827 12.5723L93.7447 12.4584L94.331 29.2482L91.069 29.3621L90.4827 12.5723ZM100.902 14.9702L95.8886 15.1452L95.7923 12.3869L109.08 11.9229L109.177 14.6812L104.164 14.8563L104.654 28.8877L101.392 29.0016L100.902 14.9702ZM117.534 11.6277L128.279 11.2524L131.258 14.0302L131.643 25.0634L128.865 28.0422L118.12 28.4174L117.534 11.6277ZM127.161 25.316L128.342 24.05L128.035 15.2714L126.769 14.0909L120.893 14.2961L121.285 25.5212L127.161 25.316ZM134.167 11.0468L137.429 10.9329L138.015 27.7227L134.753 27.8366L134.167 11.0468ZM151.03 15.7412L150.982 14.374L149.816 13.2861L145.018 13.4536L143.838 14.7196L144.144 23.4982L145.41 24.6787L150.208 24.5112L151.295 23.3445L151.248 21.9774L154.51 21.8635L154.599 24.4299L151.984 27.2349L148.794 27.3463L148.486 28.1735L149.734 28.13L150.975 29.2874L151.048 31.3981L149.845 32.6889L145.671 32.8346L145.609 31.0597L148.44 30.9609L148.717 30.663L148.696 30.0394L148.398 29.7616L146.023 29.8445L145.997 29.101L146.563 27.4242L143.781 27.5214L140.926 24.8594L140.532 13.5862L143.194 10.7316L151.397 10.4451L154.202 13.0608L154.292 15.6273L151.03 15.7412ZM156.393 10.2707L159.655 10.1568L159.9 17.1845L162.443 17.0957L166.251 9.92644L169.921 9.79829L165.296 18.3409L170.915 26.5738L167.173 26.7045L162.516 19.8788L159.997 19.9668L160.241 26.9465L156.979 27.0605L156.393 10.2707ZM176.717 9.56094L179.691 9.45708L186.418 26.0324L183.108 26.148L181.611 22.478L175.711 22.6841L174.473 26.4495L171.163 26.5651L176.717 9.56094ZM180.798 19.8168L178.344 13.5146L178.296 13.5162L176.36 19.9717L180.798 19.8168ZM11.0283 60.5825L10.9445 58.1839L14.1586 58.0717L14.208 59.4868L15.0271 60.2507L19.9921 60.0773L20.7791 59.2334L20.682 56.4511L19.8628 55.6872L13.5067 55.9091L10.8258 53.4092L10.6709 48.9719L13.1708 46.291L20.7502 46.0263L23.4311 48.5263L23.5157 50.9488L20.3016 51.0611L20.2514 49.6219L19.4322 48.858L14.6831 49.0239L13.9192 49.8431L14.0055 52.3135L14.8247 53.0774L21.1808 52.8555L23.8617 55.3554L24.0267 60.0805L21.4804 62.8111L13.7092 63.0824L11.0283 60.5825ZM26.1642 45.8373L38.3008 45.4134L38.3971 48.1718L29.5225 48.4817L29.6707 52.7271L37.8498 52.4415L37.9444 55.1518L29.7654 55.4374L29.9162 59.7548L38.7907 59.4449L38.8871 62.2032L26.7505 62.627L26.1642 45.8373ZM47.2451 45.1011L57.7746 44.7334L60.4315 47.2342L60.6367 53.1106L58.1376 55.8155L50.894 56.0684L51.0934 61.777L47.8314 61.8909L47.2451 45.1011ZM56.579 53.1322L57.3892 52.2634L57.2518 48.3298L56.383 47.5197L50.6025 47.7215L50.7985 53.3341L56.579 53.1322ZM62.7512 44.5596L74.8878 44.1358L74.9842 46.8941L66.1096 47.204L66.2578 51.4494L74.4368 51.1638L74.5315 53.8742L66.3525 54.1598L66.5032 58.4772L75.3778 58.1672L75.4741 60.9256L63.3375 61.3494L62.7512 44.5596ZM83.9682 58.0354L83.8844 55.6368L87.0985 55.5246L87.1479 56.9397L87.9671 57.7036L92.932 57.5302L93.7191 56.6862L93.6219 53.9039L92.8027 53.1401L86.4466 53.362L83.7657 50.8621L83.6108 46.4248L86.1107 43.7439L93.6901 43.4792L96.371 45.9792L96.4556 48.4017L93.2416 48.5139L93.1913 47.0748L92.3721 46.3109L87.623 46.4768L86.8592 47.2959L86.9454 49.7664L87.7646 50.5303L94.1207 50.3083L96.8016 52.8083L96.9666 57.5334L94.4203 60.264L86.6491 60.5353L83.9682 58.0354ZM99.1041 43.2902L102.366 43.1762L102.611 50.204L109.711 49.956L109.466 42.9283L112.728 42.8144L113.314 59.6042L110.052 59.7181L109.808 52.7383L102.709 52.9863L102.952 59.966L99.6904 60.0799L99.1041 43.2902ZM116.102 56.7451L115.708 45.472L118.37 42.6174L127.005 42.3158L129.86 44.9778L130.253 56.251L127.591 59.1056L118.956 59.4071L116.102 56.7451ZM125.767 56.3836L126.948 55.1176L126.641 46.339L125.375 45.1584L120.194 45.3394L119.014 46.6053L119.32 55.384L120.586 56.5645L125.767 56.3836ZM132.646 42.1188L135.908 42.0049L136.154 49.0326L143.253 48.7847L143.008 41.757L146.27 41.6431L146.856 58.4329L143.594 58.5468L143.35 51.567L136.251 51.8149L136.494 58.7947L133.232 58.9086L132.646 42.1188ZM155.334 55.231L155.226 52.1129L158.392 52.0024L158.462 54.0171L159.728 55.1977L162.918 55.0863L164.03 53.9187L163.58 41.0386L166.842 40.9247L167.33 54.9082L164.622 57.8125L158.314 58.0327L155.334 55.231ZM169.842 40.8199L181.979 40.3961L182.075 43.1544L173.201 43.4643L173.349 47.7097L181.528 47.4241L181.622 50.1345L173.443 50.4201L173.594 54.7375L182.469 54.4276L182.565 57.1859L170.429 57.6097L169.842 40.8199ZM191.409 53.9953L190.923 40.0838L194.185 39.9698L194.632 52.7541L195.898 53.9346L200.599 53.7704L201.779 52.5045L201.333 39.7202L204.595 39.6063L205.081 53.5179L202.303 56.4966L194.388 56.773L191.409 53.9953ZM207.718 39.4973L210.644 39.3951L218.525 50.5268L218.573 50.5252L218.175 39.1321L221.317 39.0224L221.904 55.8121L218.977 55.9143L211.097 44.8066L211.049 44.8083L211.446 56.1773L208.304 56.2871L207.718 39.4973ZM228.352 41.5384L223.339 41.7135L223.242 38.9551L236.53 38.4911L236.627 41.2494L231.614 41.4245L232.104 55.4559L228.842 55.5699L228.352 41.5384ZM238.935 52.3356L238.449 38.4241L241.711 38.3102L242.157 51.0944L243.423 52.275L248.124 52.1108L249.305 50.8448L248.858 38.0606L252.12 37.9467L252.606 51.8582L249.829 54.837L241.913 55.1134L238.935 52.3356ZM255.451 41.0483L255.339 37.8343L258.601 37.7204L258.713 40.9344L258.635 49.6785L256.14 49.7656L255.451 41.0483ZM255.674 53.6002L255.623 52.1611L256.619 51.0937L258.25 51.0368L259.317 52.0321L259.367 53.4712L258.372 54.5386L256.741 54.5956L255.674 53.6002ZM262.033 40.8185L261.921 37.6045L265.183 37.4905L265.295 40.7046L265.217 49.4487L262.722 49.5358L262.033 40.8185ZM262.256 53.3704L262.205 51.9313L263.201 50.8639L264.832 50.8069L265.899 51.8023L265.949 53.2414L264.954 54.3088L263.323 54.3657L262.256 53.3704ZM268.615 40.5886L268.503 37.3746L271.765 37.2607L271.877 40.4747L271.798 49.2188L269.304 49.3059L268.615 40.5886ZM268.837 53.1405L268.787 51.7014L269.783 50.634L271.414 50.5771L272.481 51.5724L272.531 53.0116L271.536 54.0789L269.905 54.1359L268.837 53.1405Z"/>
</mask>
<path d="M9.81033 15.3895L20.3399 15.0218L22.9968 17.5226L23.202 23.399L20.7029 26.1038L13.4593 26.3568L13.6586 32.0653L10.3966 32.1792L9.81033 15.3895ZM19.1443 23.4206L19.9545 22.5518L19.8171 18.6182L18.9483 17.808L13.1678 18.0099L13.3638 23.6225L19.1443 23.4206ZM25.5666 28.8878L25.173 17.6147L27.835 14.76L36.4697 14.4585L39.3243 17.1205L39.718 28.3936L37.056 31.2483L28.4213 31.5498L25.5666 28.8878ZM35.2319 28.5263L36.4124 27.2603L36.1059 18.4816L34.8399 17.3011L29.6591 17.482L28.4785 18.748L28.7851 27.5266L30.0511 28.7072L35.2319 28.5263ZM55.6949 25.026L55.8892 30.5906L52.6272 30.7045L52.4589 25.8834L50.9636 24.3267L45.7348 24.5093L45.9593 30.9374L42.6973 31.0513L42.111 14.2615L52.6405 13.8938L55.2974 16.3946L55.475 21.4795L53.9018 23.1914L55.6949 25.026ZM45.641 21.8229L51.4215 21.621L52.2316 20.7522L52.1177 17.4902L51.2489 16.6801L45.4684 16.8819L45.641 21.8229ZM58.5465 27.7361L58.1529 16.463L60.8149 13.6083L69.4496 13.3068L72.3042 15.9688L72.6979 27.2419L70.0359 30.0966L61.4012 30.3981L58.5465 27.7361ZM68.2118 27.3746L69.3923 26.1086L69.0858 17.33L67.8198 16.1494L62.639 16.3303L61.4584 17.5963L61.765 26.375L63.031 27.5555L68.2118 27.3746ZM75.2269 27.3217L75.1432 24.9232L78.3572 24.8109L78.4066 26.2261L79.2258 26.99L84.1908 26.8166L84.9778 25.9726L84.8806 23.1903L84.0615 22.4264L77.7053 22.6484L75.0245 20.1484L74.8695 15.7111L77.3695 13.0302L84.9488 12.7656L87.6297 15.2655L87.7143 17.6881L84.5003 17.8003L84.45 16.3612L83.6309 15.5973L78.8818 15.7631L78.1179 16.5823L78.2042 19.0528L79.0233 19.8167L85.3794 19.5947L88.0603 22.0947L88.2253 26.8198L85.6791 29.5503L77.9078 29.8217L75.2269 27.3217ZM90.4827 12.5723L93.7447 12.4584L94.331 29.2482L91.069 29.3621L90.4827 12.5723ZM100.902 14.9702L95.8886 15.1452L95.7923 12.3869L109.08 11.9229L109.177 14.6812L104.164 14.8563L104.654 28.8877L101.392 29.0016L100.902 14.9702ZM117.534 11.6277L128.279 11.2524L131.258 14.0302L131.643 25.0634L128.865 28.0422L118.12 28.4174L117.534 11.6277ZM127.161 25.316L128.342 24.05L128.035 15.2714L126.769 14.0909L120.893 14.2961L121.285 25.5212L127.161 25.316ZM134.167 11.0468L137.429 10.9329L138.015 27.7227L134.753 27.8366L134.167 11.0468ZM151.03 15.7412L150.982 14.374L149.816 13.2861L145.018 13.4536L143.838 14.7196L144.144 23.4982L145.41 24.6787L150.208 24.5112L151.295 23.3445L151.248 21.9774L154.51 21.8635L154.599 24.4299L151.984 27.2349L148.794 27.3463L148.486 28.1735L149.734 28.13L150.975 29.2874L151.048 31.3981L149.845 32.6889L145.671 32.8346L145.609 31.0597L148.44 30.9609L148.717 30.663L148.696 30.0394L148.398 29.7616L146.023 29.8445L145.997 29.101L146.563 27.4242L143.781 27.5214L140.926 24.8594L140.532 13.5862L143.194 10.7316L151.397 10.4451L154.202 13.0608L154.292 15.6273L151.03 15.7412ZM156.393 10.2707L159.655 10.1568L159.9 17.1845L162.443 17.0957L166.251 9.92644L169.921 9.79829L165.296 18.3409L170.915 26.5738L167.173 26.7045L162.516 19.8788L159.997 19.9668L160.241 26.9465L156.979 27.0605L156.393 10.2707ZM176.717 9.56094L179.691 9.45708L186.418 26.0324L183.108 26.148L181.611 22.478L175.711 22.6841L174.473 26.4495L171.163 26.5651L176.717 9.56094ZM180.798 19.8168L178.344 13.5146L178.296 13.5162L176.36 19.9717L180.798 19.8168ZM11.0283 60.5825L10.9445 58.1839L14.1586 58.0717L14.208 59.4868L15.0271 60.2507L19.9921 60.0773L20.7791 59.2334L20.682 56.4511L19.8628 55.6872L13.5067 55.9091L10.8258 53.4092L10.6709 48.9719L13.1708 46.291L20.7502 46.0263L23.4311 48.5263L23.5157 50.9488L20.3016 51.0611L20.2514 49.6219L19.4322 48.858L14.6831 49.0239L13.9192 49.8431L14.0055 52.3135L14.8247 53.0774L21.1808 52.8555L23.8617 55.3554L24.0267 60.0805L21.4804 62.8111L13.7092 63.0824L11.0283 60.5825ZM26.1642 45.8373L38.3008 45.4134L38.3971 48.1718L29.5225 48.4817L29.6707 52.7271L37.8498 52.4415L37.9444 55.1518L29.7654 55.4374L29.9162 59.7548L38.7907 59.4449L38.8871 62.2032L26.7505 62.627L26.1642 45.8373ZM47.2451 45.1011L57.7746 44.7334L60.4315 47.2342L60.6367 53.1106L58.1376 55.8155L50.894 56.0684L51.0934 61.777L47.8314 61.8909L47.2451 45.1011ZM56.579 53.1322L57.3892 52.2634L57.2518 48.3298L56.383 47.5197L50.6025 47.7215L50.7985 53.3341L56.579 53.1322ZM62.7512 44.5596L74.8878 44.1358L74.9842 46.8941L66.1096 47.204L66.2578 51.4494L74.4368 51.1638L74.5315 53.8742L66.3525 54.1598L66.5032 58.4772L75.3778 58.1672L75.4741 60.9256L63.3375 61.3494L62.7512 44.5596ZM83.9682 58.0354L83.8844 55.6368L87.0985 55.5246L87.1479 56.9397L87.9671 57.7036L92.932 57.5302L93.7191 56.6862L93.6219 53.9039L92.8027 53.1401L86.4466 53.362L83.7657 50.8621L83.6108 46.4248L86.1107 43.7439L93.6901 43.4792L96.371 45.9792L96.4556 48.4017L93.2416 48.5139L93.1913 47.0748L92.3721 46.3109L87.623 46.4768L86.8592 47.2959L86.9454 49.7664L87.7646 50.5303L94.1207 50.3083L96.8016 52.8083L96.9666 57.5334L94.4203 60.264L86.6491 60.5353L83.9682 58.0354ZM99.1041 43.2902L102.366 43.1762L102.611 50.204L109.711 49.956L109.466 42.9283L112.728 42.8144L113.314 59.6042L110.052 59.7181L109.808 52.7383L102.709 52.9863L102.952 59.966L99.6904 60.0799L99.1041 43.2902ZM116.102 56.7451L115.708 45.472L118.37 42.6174L127.005 42.3158L129.86 44.9778L130.253 56.251L127.591 59.1056L118.956 59.4071L116.102 56.7451ZM125.767 56.3836L126.948 55.1176L126.641 46.339L125.375 45.1584L120.194 45.3394L119.014 46.6053L119.32 55.384L120.586 56.5645L125.767 56.3836ZM132.646 42.1188L135.908 42.0049L136.154 49.0326L143.253 48.7847L143.008 41.757L146.27 41.6431L146.856 58.4329L143.594 58.5468L143.35 51.567L136.251 51.8149L136.494 58.7947L133.232 58.9086L132.646 42.1188ZM155.334 55.231L155.226 52.1129L158.392 52.0024L158.462 54.0171L159.728 55.1977L162.918 55.0863L164.03 53.9187L163.58 41.0386L166.842 40.9247L167.33 54.9082L164.622 57.8125L158.314 58.0327L155.334 55.231ZM169.842 40.8199L181.979 40.3961L182.075 43.1544L173.201 43.4643L173.349 47.7097L181.528 47.4241L181.622 50.1345L173.443 50.4201L173.594 54.7375L182.469 54.4276L182.565 57.1859L170.429 57.6097L169.842 40.8199ZM191.409 53.9953L190.923 40.0838L194.185 39.9698L194.632 52.7541L195.898 53.9346L200.599 53.7704L201.779 52.5045L201.333 39.7202L204.595 39.6063L205.081 53.5179L202.303 56.4966L194.388 56.773L191.409 53.9953ZM207.718 39.4973L210.644 39.3951L218.525 50.5268L218.573 50.5252L218.175 39.1321L221.317 39.0224L221.904 55.8121L218.977 55.9143L211.097 44.8066L211.049 44.8083L211.446 56.1773L208.304 56.2871L207.718 39.4973ZM228.352 41.5384L223.339 41.7135L223.242 38.9551L236.53 38.4911L236.627 41.2494L231.614 41.4245L232.104 55.4559L228.842 55.5699L228.352 41.5384ZM238.935 52.3356L238.449 38.4241L241.711 38.3102L242.157 51.0944L243.423 52.275L248.124 52.1108L249.305 50.8448L248.858 38.0606L252.12 37.9467L252.606 51.8582L249.829 54.837L241.913 55.1134L238.935 52.3356ZM255.451 41.0483L255.339 37.8343L258.601 37.7204L258.713 40.9344L258.635 49.6785L256.14 49.7656L255.451 41.0483ZM255.674 53.6002L255.623 52.1611L256.619 51.0937L258.25 51.0368L259.317 52.0321L259.367 53.4712L258.372 54.5386L256.741 54.5956L255.674 53.6002ZM262.033 40.8185L261.921 37.6045L265.183 37.4905L265.295 40.7046L265.217 49.4487L262.722 49.5358L262.033 40.8185ZM262.256 53.3704L262.205 51.9313L263.201 50.8639L264.832 50.8069L265.899 51.8023L265.949 53.2414L264.954 54.3088L263.323 54.3657L262.256 53.3704ZM268.615 40.5886L268.503 37.3746L271.765 37.2607L271.877 40.4747L271.798 49.2188L269.304 49.3059L268.615 40.5886ZM268.837 53.1405L268.787 51.7014L269.783 50.634L271.414 50.5771L272.481 51.5724L272.531 53.0116L271.536 54.0789L269.905 54.1359L268.837 53.1405Z" fill="white"/>
<path d="M9.81033 15.3895L9.49623 6.39494L0.501713 6.70904L0.815809 15.7036L9.81033 15.3895ZM20.3399 15.0218L26.5084 8.4682L23.776 5.89628L20.0258 6.02724L20.3399 15.0218ZM22.9968 17.5226L31.9913 17.2085L31.8621 13.5073L29.1653 10.969L22.9968 17.5226ZM23.202 23.399L29.8124 29.5066L32.3258 26.7863L32.1965 23.0849L23.202 23.399ZM20.7029 26.1038L21.017 35.0984L24.7669 34.9674L27.3133 32.2114L20.7029 26.1038ZM13.4593 26.3568L13.1452 17.3623L4.15069 17.6764L4.46479 26.6709L13.4593 26.3568ZM13.6586 32.0653L13.9727 41.0598L22.9673 40.7457L22.6532 31.7512L13.6586 32.0653ZM10.3966 32.1792L1.40212 32.4933L1.71622 41.4878L10.7107 41.1737L10.3966 32.1792ZM19.1443 23.4206L19.4584 32.4151L23.184 32.285L25.7265 29.5586L19.1443 23.4206ZM19.9545 22.5518L26.5367 28.6898L29.0791 25.9634L28.949 22.2377L19.9545 22.5518ZM19.8171 18.6182L28.8116 18.3041L28.6815 14.5785L25.9551 12.036L19.8171 18.6182ZM18.9483 17.808L25.0863 11.2258L22.3599 8.6834L18.6342 8.81351L18.9483 17.808ZM13.1678 18.0099L12.8537 9.01537L3.85921 9.32946L4.17331 18.324L13.1678 18.0099ZM13.3638 23.6225L4.3693 23.9366L4.6834 32.9311L13.6779 32.617L13.3638 23.6225ZM9.81033 15.3895L10.1244 24.384L20.654 24.0163L20.3399 15.0218L20.0258 6.02724L9.49623 6.39494L9.81033 15.3895ZM20.3399 15.0218L14.1714 21.5753L16.8283 24.0761L22.9968 17.5226L29.1653 10.969L26.5084 8.4682L20.3399 15.0218ZM22.9968 17.5226L14.0023 17.8367L14.2075 23.7131L23.202 23.399L32.1965 23.0849L31.9913 17.2085L22.9968 17.5226ZM23.202 23.399L16.5916 17.2914L14.0925 19.9963L20.7029 26.1038L27.3133 32.2114L29.8124 29.5066L23.202 23.399ZM20.7029 26.1038L20.3888 17.1093L13.1452 17.3623L13.4593 26.3568L13.7734 35.3513L21.017 35.0984L20.7029 26.1038ZM13.4593 26.3568L4.46479 26.6709L4.66413 32.3794L13.6586 32.0653L22.6532 31.7512L22.4538 26.0427L13.4593 26.3568ZM13.6586 32.0653L13.3446 23.0708L10.0825 23.1847L10.3966 32.1792L10.7107 41.1737L13.9727 41.0598L13.6586 32.0653ZM10.3966 32.1792L19.3912 31.8651L18.8048 15.0754L9.81033 15.3895L0.815809 15.7036L1.40212 32.4933L10.3966 32.1792ZM19.1443 23.4206L25.7265 29.5586L26.5367 28.6898L19.9545 22.5518L13.3723 16.4138L12.5621 17.2826L19.1443 23.4206ZM19.9545 22.5518L28.949 22.2377L28.8116 18.3041L19.8171 18.6182L10.8226 18.9323L10.96 22.8659L19.9545 22.5518ZM19.8171 18.6182L25.9551 12.036L25.0863 11.2258L18.9483 17.808L12.8103 24.3902L13.6791 25.2004L19.8171 18.6182ZM18.9483 17.808L18.6342 8.81351L12.8537 9.01537L13.1678 18.0099L13.4819 27.0044L19.2624 26.8025L18.9483 17.808ZM13.1678 18.0099L4.17331 18.324L4.3693 23.9366L13.3638 23.6225L22.3583 23.3084L22.1623 17.6958L13.1678 18.0099ZM13.3638 23.6225L13.6779 32.617L19.4584 32.4151L19.1443 23.4206L18.8302 14.4261L13.0497 14.6279L13.3638 23.6225ZM25.5666 28.8878L16.5721 29.2019L16.7022 32.9275L19.4286 35.47L25.5666 28.8878ZM25.173 17.6147L18.5908 11.4767L16.0483 14.2031L16.1785 17.9288L25.173 17.6147ZM27.835 14.76L27.5209 5.76551L23.7952 5.89561L21.2528 8.62204L27.835 14.76ZM36.4697 14.4585L42.6077 7.87631L39.8813 5.33387L36.1556 5.46398L36.4697 14.4585ZM39.3243 17.1205L48.3189 16.8064L48.1888 13.0807L45.4623 10.5383L39.3243 17.1205ZM39.718 28.3936L46.3002 34.5316L48.8426 31.8052L48.7125 28.0795L39.718 28.3936ZM37.056 31.2483L37.3701 40.2428L41.0958 40.1127L43.6382 37.3862L37.056 31.2483ZM28.4213 31.5498L22.2833 38.132L25.0097 40.6744L28.7354 40.5443L28.4213 31.5498ZM35.2319 28.5263L35.546 37.5208L39.2717 37.3907L41.8141 34.6642L35.2319 28.5263ZM36.4124 27.2603L42.9946 33.3983L45.5371 30.6718L45.407 26.9462L36.4124 27.2603ZM36.1059 18.4816L45.1004 18.1675L44.9703 14.4419L42.2439 11.8995L36.1059 18.4816ZM34.8399 17.3011L40.9779 10.7189L38.2515 8.17648L34.5258 8.30659L34.8399 17.3011ZM29.6591 17.482L29.345 8.48751L25.6193 8.61761L23.0769 11.344L29.6591 17.482ZM28.4785 18.748L21.8964 12.61L19.3539 15.3364L19.484 19.0621L28.4785 18.748ZM28.7851 27.5266L19.7906 27.8407L19.9207 31.5664L22.6471 34.1088L28.7851 27.5266ZM30.0511 28.7072L23.9131 35.2894L26.6395 37.8318L30.3652 37.7017L30.0511 28.7072ZM25.5666 28.8878L34.5612 28.5737L34.1675 17.3006L25.173 17.6147L16.1785 17.9288L16.5721 29.2019L25.5666 28.8878ZM25.173 17.6147L31.7552 23.7527L34.4171 20.898L27.835 14.76L21.2528 8.62204L18.5908 11.4767L25.173 17.6147ZM27.835 14.76L28.1491 23.7545L36.7838 23.453L36.4697 14.4585L36.1556 5.46398L27.5209 5.76551L27.835 14.76ZM36.4697 14.4585L30.3317 21.0407L33.1864 23.7027L39.3243 17.1205L45.4623 10.5383L42.6077 7.87631L36.4697 14.4585ZM39.3243 17.1205L30.3298 17.4346L30.7235 28.7077L39.718 28.3936L48.7125 28.0795L48.3189 16.8064L39.3243 17.1205ZM39.718 28.3936L33.1358 22.2556L30.4738 25.1103L37.056 31.2483L43.6382 37.3862L46.3002 34.5316L39.718 28.3936ZM37.056 31.2483L36.7419 22.2537L28.1072 22.5553L28.4213 31.5498L28.7354 40.5443L37.3701 40.2428L37.056 31.2483ZM28.4213 31.5498L34.5593 24.9676L31.7046 22.3056L25.5666 28.8878L19.4286 35.47L22.2833 38.132L28.4213 31.5498ZM35.2319 28.5263L41.8141 34.6642L42.9946 33.3983L36.4124 27.2603L29.8303 21.1223L28.6497 22.3883L35.2319 28.5263ZM36.4124 27.2603L45.407 26.9462L45.1004 18.1675L36.1059 18.4816L27.1114 18.7957L27.4179 27.5744L36.4124 27.2603ZM36.1059 18.4816L42.2439 11.8995L40.9779 10.7189L34.8399 17.3011L28.7019 23.8833L29.9679 25.0638L36.1059 18.4816ZM34.8399 17.3011L34.5258 8.30659L29.345 8.48751L29.6591 17.482L29.9732 26.4765L35.154 26.2956L34.8399 17.3011ZM29.6591 17.482L23.0769 11.344L21.8964 12.61L28.4785 18.748L35.0607 24.886L36.2413 23.62L29.6591 17.482ZM28.4785 18.748L19.484 19.0621L19.7906 27.8407L28.7851 27.5266L37.7796 27.2126L37.4731 18.4339L28.4785 18.748ZM28.7851 27.5266L22.6471 34.1088L23.9131 35.2894L30.0511 28.7072L36.189 22.125L34.9231 20.9445L28.7851 27.5266ZM30.0511 28.7072L30.3652 37.7017L35.546 37.5208L35.2319 28.5263L34.9178 19.5317L29.737 19.7127L30.0511 28.7072ZM55.6949 25.026L64.6894 24.7119L64.5678 21.228L62.1311 18.7351L55.6949 25.026ZM55.8892 30.5906L56.2033 39.5851L65.1978 39.271L64.8837 30.2765L55.8892 30.5906ZM52.6272 30.7045L43.6327 31.0186L43.9468 40.0131L52.9413 39.699L52.6272 30.7045ZM52.4589 25.8834L61.4534 25.5693L61.3333 22.1306L58.9498 19.649L52.4589 25.8834ZM50.9636 24.3267L57.4545 18.0923L54.6687 15.1918L50.6495 15.3322L50.9636 24.3267ZM45.7348 24.5093L45.4207 15.5148L36.4262 15.8288L36.7403 24.8234L45.7348 24.5093ZM45.9593 30.9374L46.2734 39.9319L55.2679 39.6178L54.9538 30.6233L45.9593 30.9374ZM42.6973 31.0513L33.7027 31.3654L34.0168 40.3599L43.0114 40.0458L42.6973 31.0513ZM42.111 14.2615L41.7969 5.26698L32.8023 5.58108L33.1164 14.5756L42.111 14.2615ZM52.6405 13.8938L58.8091 7.34023L56.0766 4.76832L52.3264 4.89928L52.6405 13.8938ZM55.2974 16.3946L64.2919 16.0805L64.1627 12.3793L61.466 9.84103L55.2974 16.3946ZM55.475 21.4795L62.1018 27.5693L64.5983 24.8527L64.4695 21.1654L55.475 21.4795ZM53.9018 23.1914L47.275 17.1017L41.5033 23.3823L47.4656 29.4823L53.9018 23.1914ZM45.641 21.8229L36.6465 22.137L36.9606 31.1315L45.9551 30.8174L45.641 21.8229ZM51.4215 21.621L51.7356 30.6156L55.4612 30.4855L58.0037 27.759L51.4215 21.621ZM52.2316 20.7522L58.8138 26.8902L61.3563 24.1638L61.2262 20.4382L52.2316 20.7522ZM52.1177 17.4902L61.1122 17.1761L60.9821 13.4505L58.2557 10.9081L52.1177 17.4902ZM51.2489 16.6801L57.3869 10.0979L54.6605 7.55544L50.9348 7.68554L51.2489 16.6801ZM45.4684 16.8819L45.1544 7.8874L36.1598 8.2015L36.4739 17.196L45.4684 16.8819ZM55.6949 25.026L46.7004 25.3401L46.8947 30.9047L55.8892 30.5906L64.8837 30.2765L64.6894 24.7119L55.6949 25.026ZM55.8892 30.5906L55.5751 21.5961L52.3131 21.71L52.6272 30.7045L52.9413 39.699L56.2033 39.5851L55.8892 30.5906ZM52.6272 30.7045L61.6217 30.3904L61.4534 25.5693L52.4589 25.8834L43.4643 26.1975L43.6327 31.0186L52.6272 30.7045ZM52.4589 25.8834L58.9498 19.649L57.4545 18.0923L50.9636 24.3267L44.4727 30.5611L45.9679 32.1178L52.4589 25.8834ZM50.9636 24.3267L50.6495 15.3322L45.4207 15.5148L45.7348 24.5093L46.0489 33.5038L51.2777 33.3212L50.9636 24.3267ZM45.7348 24.5093L36.7403 24.8234L36.9648 31.2514L45.9593 30.9374L54.9538 30.6233L54.7293 24.1952L45.7348 24.5093ZM45.9593 30.9374L45.6452 21.9428L42.3832 22.0567L42.6973 31.0513L43.0114 40.0458L46.2734 39.9319L45.9593 30.9374ZM42.6973 31.0513L51.6918 30.7372L51.1055 13.9474L42.111 14.2615L33.1164 14.5756L33.7027 31.3654L42.6973 31.0513ZM42.111 14.2615L42.425 23.256L52.9546 22.8883L52.6405 13.8938L52.3264 4.89928L41.7969 5.26698L42.111 14.2615ZM52.6405 13.8938L46.472 20.4474L49.1289 22.9482L55.2974 16.3946L61.466 9.84103L58.8091 7.34023L52.6405 13.8938ZM55.2974 16.3946L46.3029 16.7087L46.4805 21.7936L55.475 21.4795L64.4695 21.1654L64.2919 16.0805L55.2974 16.3946ZM55.475 21.4795L48.8482 15.3897L47.275 17.1017L53.9018 23.1914L60.5286 29.2812L62.1018 27.5693L55.475 21.4795ZM53.9018 23.1914L47.4656 29.4823L49.2587 31.3169L55.6949 25.026L62.1311 18.7351L60.338 16.9006L53.9018 23.1914ZM45.641 21.8229L45.9551 30.8174L51.7356 30.6156L51.4215 21.621L51.1074 12.6265L45.3269 12.8284L45.641 21.8229ZM51.4215 21.621L58.0037 27.759L58.8138 26.8902L52.2316 20.7522L45.6495 14.6143L44.8393 15.4831L51.4215 21.621ZM52.2316 20.7522L61.2262 20.4382L61.1122 17.1761L52.1177 17.4902L43.1232 17.8043L43.2371 21.0663L52.2316 20.7522ZM52.1177 17.4902L58.2557 10.9081L57.3869 10.0979L51.2489 16.6801L45.1109 23.2622L45.9797 24.0724L52.1177 17.4902ZM51.2489 16.6801L50.9348 7.68554L45.1544 7.8874L45.4684 16.8819L45.7825 25.8764L51.563 25.6746L51.2489 16.6801ZM45.4684 16.8819L36.4739 17.196L36.6465 22.137L45.641 21.8229L54.6355 21.5088L54.463 16.5678L45.4684 16.8819ZM58.5465 27.7361L49.552 28.0502L49.6821 31.7759L52.4085 34.3183L58.5465 27.7361ZM58.1529 16.463L51.5707 10.325L49.0282 13.0514L49.1583 16.7771L58.1529 16.463ZM60.8149 13.6083L60.5008 4.61383L56.7751 4.74393L54.2327 7.47036L60.8149 13.6083ZM69.4496 13.3068L75.5876 6.72463L72.8612 4.18219L69.1355 4.31229L69.4496 13.3068ZM72.3042 15.9688L81.2988 15.6547L81.1687 11.9291L78.4422 9.38662L72.3042 15.9688ZM72.6979 27.2419L79.2801 33.3799L81.8225 30.6535L81.6924 26.9278L72.6979 27.2419ZM70.0359 30.0966L70.35 39.0911L74.0757 38.961L76.6181 36.2346L70.0359 30.0966ZM61.4012 30.3981L55.2632 36.9803L57.9896 39.5227L61.7153 39.3926L61.4012 30.3981ZM68.2118 27.3746L68.5259 36.3691L72.2516 36.239L74.794 33.5126L68.2118 27.3746ZM69.3923 26.1086L75.9745 32.2466L78.517 29.5202L78.3869 25.7945L69.3923 26.1086ZM69.0858 17.33L78.0803 17.0159L77.9502 13.2902L75.2238 10.7478L69.0858 17.33ZM67.8198 16.1494L73.9578 9.56724L71.2314 7.0248L67.5057 7.1549L67.8198 16.1494ZM62.639 16.3303L62.3249 7.33582L58.5992 7.46593L56.0568 10.1924L62.639 16.3303ZM61.4584 17.5963L54.8762 11.4583L52.3338 14.1848L52.4639 17.9104L61.4584 17.5963ZM61.765 26.375L52.7705 26.6891L52.9006 30.4147L55.627 32.9571L61.765 26.375ZM63.031 27.5555L56.893 34.1377L59.6194 36.6801L63.3451 36.55L63.031 27.5555ZM58.5465 27.7361L67.5411 27.422L67.1474 16.1489L58.1529 16.463L49.1583 16.7771L49.552 28.0502L58.5465 27.7361ZM58.1529 16.463L64.735 22.601L67.397 19.7463L60.8149 13.6083L54.2327 7.47036L51.5707 10.325L58.1529 16.463ZM60.8149 13.6083L61.129 22.6029L69.7637 22.3013L69.4496 13.3068L69.1355 4.31229L60.5008 4.61383L60.8149 13.6083ZM69.4496 13.3068L63.3116 19.889L66.1663 22.551L72.3042 15.9688L78.4422 9.38662L75.5876 6.72463L69.4496 13.3068ZM72.3042 15.9688L63.3097 16.2829L63.7034 27.556L72.6979 27.2419L81.6924 26.9278L81.2988 15.6547L72.3042 15.9688ZM72.6979 27.2419L66.1157 21.104L63.4537 23.9586L70.0359 30.0966L76.6181 36.2346L79.2801 33.3799L72.6979 27.2419ZM70.0359 30.0966L69.7218 21.1021L61.0871 21.4036L61.4012 30.3981L61.7153 39.3926L70.35 39.0911L70.0359 30.0966ZM61.4012 30.3981L67.5392 23.8159L64.6845 21.1539L58.5465 27.7361L52.4085 34.3183L55.2632 36.9803L61.4012 30.3981ZM68.2118 27.3746L74.794 33.5126L75.9745 32.2466L69.3923 26.1086L62.8102 19.9706L61.6296 21.2366L68.2118 27.3746ZM69.3923 26.1086L78.3869 25.7945L78.0803 17.0159L69.0858 17.33L60.0913 17.6441L60.3978 26.4227L69.3923 26.1086ZM69.0858 17.33L75.2238 10.7478L73.9578 9.56724L67.8198 16.1494L61.6818 22.7316L62.9478 23.9121L69.0858 17.33ZM67.8198 16.1494L67.5057 7.1549L62.3249 7.33582L62.639 16.3303L62.9531 25.3249L68.1339 25.1439L67.8198 16.1494ZM62.639 16.3303L56.0568 10.1924L54.8762 11.4583L61.4584 17.5963L68.0406 23.7343L69.2212 22.4683L62.639 16.3303ZM61.4584 17.5963L52.4639 17.9104L52.7705 26.6891L61.765 26.375L70.7595 26.0609L70.453 17.2822L61.4584 17.5963ZM61.765 26.375L55.627 32.9571L56.893 34.1377L63.031 27.5555L69.1689 20.9733L67.903 19.7928L61.765 26.375ZM63.031 27.5555L63.3451 36.55L68.5259 36.3691L68.2118 27.3746L67.8977 18.3801L62.7169 18.561L63.031 27.5555ZM75.2269 27.3217L66.2324 27.6358L66.3625 31.3615L69.0889 33.9039L75.2269 27.3217ZM75.1432 24.9232L74.8291 15.9287L65.8345 16.2428L66.1486 25.2373L75.1432 24.9232ZM78.3572 24.8109L87.3517 24.4969L87.0376 15.5023L78.0431 15.8164L78.3572 24.8109ZM78.4066 26.2261L69.4121 26.5402L69.5422 30.2658L72.2686 32.8083L78.4066 26.2261ZM79.2258 26.99L73.0878 33.5721L75.8142 36.1146L79.5399 35.9845L79.2258 26.99ZM84.1908 26.8166L84.5048 35.8111L88.2305 35.681L90.7729 32.9546L84.1908 26.8166ZM84.9778 25.9726L91.56 32.1106L94.1024 29.3842L93.9723 25.6585L84.9778 25.9726ZM84.8806 23.1903L93.8751 22.8762L93.745 19.1506L91.0186 16.6081L84.8806 23.1903ZM84.0615 22.4264L90.1994 15.8442L87.473 13.3018L83.7474 13.4319L84.0615 22.4264ZM77.7053 22.6484L71.5673 29.2306L74.2938 31.773L78.0194 31.6429L77.7053 22.6484ZM75.0245 20.1484L66.0299 20.4625L66.16 24.1882L68.8865 26.7306L75.0245 20.1484ZM74.8695 15.7111L68.2873 9.57314L65.7449 12.2996L65.875 16.0252L74.8695 15.7111ZM77.3695 13.0302L77.0554 4.03573L73.3297 4.16583L70.7873 6.89226L77.3695 13.0302ZM84.9488 12.7656L91.0868 6.18338L88.3604 3.64095L84.6347 3.77105L84.9488 12.7656ZM87.6297 15.2655L96.6242 14.9514L96.4941 11.2258L93.7677 8.68335L87.6297 15.2655ZM87.7143 17.6881L88.0284 26.6826L97.0229 26.3685L96.7088 17.374L87.7143 17.6881ZM84.5003 17.8003L75.5058 18.1144L75.8199 27.1089L84.8144 26.7948L84.5003 17.8003ZM84.45 16.3612L93.4445 16.0471L93.3144 12.3214L90.588 9.77899L84.45 16.3612ZM83.6309 15.5973L89.7689 9.01511L87.0424 6.47267L83.3168 6.60277L83.6309 15.5973ZM78.8818 15.7631L78.5677 6.76861L74.842 6.89872L72.2996 9.62515L78.8818 15.7631ZM78.1179 16.5823L71.5357 10.4443L68.9933 13.1707L69.1234 16.8964L78.1179 16.5823ZM78.2042 19.0528L69.2096 19.3669L69.3397 23.0925L72.0662 25.635L78.2042 19.0528ZM79.0233 19.8167L72.8853 26.3988L75.6118 28.9413L79.3374 28.8112L79.0233 19.8167ZM85.3794 19.5947L91.5174 13.0125L88.791 10.4701L85.0653 10.6002L85.3794 19.5947ZM88.0603 22.0947L97.0548 21.7806L96.9247 18.0549L94.1983 15.5125L88.0603 22.0947ZM88.2253 26.8198L94.8075 32.9578L97.3499 30.2313L97.2198 26.5057L88.2253 26.8198ZM85.6791 29.5503L85.9932 38.5448L89.7188 38.4147L92.2612 35.6883L85.6791 29.5503ZM77.9078 29.8217L71.7698 36.4039L74.4962 38.9463L78.2219 38.8162L77.9078 29.8217ZM75.2269 27.3217L84.2214 27.0076L84.1377 24.6091L75.1432 24.9232L66.1486 25.2373L66.2324 27.6358L75.2269 27.3217ZM75.1432 24.9232L75.4573 33.9177L78.6713 33.8055L78.3572 24.8109L78.0431 15.8164L74.8291 15.9287L75.1432 24.9232ZM78.3572 24.8109L69.3627 25.125L69.4121 26.5402L78.4066 26.2261L87.4011 25.912L87.3517 24.4969L78.3572 24.8109ZM78.4066 26.2261L72.2686 32.8083L73.0878 33.5721L79.2258 26.99L85.3638 20.4078L84.5446 19.6439L78.4066 26.2261ZM79.2258 26.99L79.5399 35.9845L84.5048 35.8111L84.1908 26.8166L83.8767 17.8221L78.9117 17.9954L79.2258 26.99ZM84.1908 26.8166L90.7729 32.9546L91.56 32.1106L84.9778 25.9726L78.3956 19.8346L77.6086 20.6786L84.1908 26.8166ZM84.9778 25.9726L93.9723 25.6585L93.8751 22.8762L84.8806 23.1903L75.8861 23.5044L75.9833 26.2867L84.9778 25.9726ZM84.8806 23.1903L91.0186 16.6081L90.1994 15.8442L84.0615 22.4264L77.9235 29.0086L78.7426 29.7725L84.8806 23.1903ZM84.0615 22.4264L83.7474 13.4319L77.3912 13.6539L77.7053 22.6484L78.0194 31.6429L84.3756 31.4209L84.0615 22.4264ZM77.7053 22.6484L83.8433 16.0662L81.1624 13.5662L75.0245 20.1484L68.8865 26.7306L71.5673 29.2306L77.7053 22.6484ZM75.0245 20.1484L84.019 19.8343L83.864 15.397L74.8695 15.7111L65.875 16.0252L66.0299 20.4625L75.0245 20.1484ZM74.8695 15.7111L81.4517 21.8491L83.9516 19.1682L77.3695 13.0302L70.7873 6.89226L68.2873 9.57314L74.8695 15.7111ZM77.3695 13.0302L77.6836 22.0248L85.2629 21.7601L84.9488 12.7656L84.6347 3.77105L77.0554 4.03573L77.3695 13.0302ZM84.9488 12.7656L78.8109 19.3477L81.4917 21.8477L87.6297 15.2655L93.7677 8.68335L91.0868 6.18338L84.9488 12.7656ZM87.6297 15.2655L78.6352 15.5796L78.7198 18.0021L87.7143 17.6881L96.7088 17.374L96.6242 14.9514L87.6297 15.2655ZM87.7143 17.6881L87.4002 8.69353L84.1862 8.80577L84.5003 17.8003L84.8144 26.7948L88.0284 26.6826L87.7143 17.6881ZM84.5003 17.8003L93.4948 17.4862L93.4445 16.0471L84.45 16.3612L75.4555 16.6753L75.5058 18.1144L84.5003 17.8003ZM84.45 16.3612L90.588 9.77899L89.7689 9.01511L83.6309 15.5973L77.4929 22.1795L78.312 22.9433L84.45 16.3612ZM83.6309 15.5973L83.3168 6.60277L78.5677 6.76861L78.8818 15.7631L79.1959 24.7576L83.945 24.5918L83.6309 15.5973ZM78.8818 15.7631L72.2996 9.62515L71.5357 10.4443L78.1179 16.5823L84.7001 22.7203L85.4639 21.9011L78.8818 15.7631ZM78.1179 16.5823L69.1234 16.8964L69.2096 19.3669L78.2042 19.0528L87.1987 18.7387L87.1124 16.2682L78.1179 16.5823ZM78.2042 19.0528L72.0662 25.635L72.8853 26.3988L79.0233 19.8167L85.1613 13.2345L84.3421 12.4706L78.2042 19.0528ZM79.0233 19.8167L79.3374 28.8112L85.6935 28.5892L85.3794 19.5947L85.0653 10.6002L78.7092 10.8221L79.0233 19.8167ZM85.3794 19.5947L79.2414 26.1769L81.9223 28.6768L88.0603 22.0947L94.1983 15.5125L91.5174 13.0125L85.3794 19.5947ZM88.0603 22.0947L79.0658 22.4088L79.2308 27.1339L88.2253 26.8198L97.2198 26.5057L97.0548 21.7806L88.0603 22.0947ZM88.2253 26.8198L81.6431 20.6818L79.0969 23.4123L85.6791 29.5503L92.2612 35.6883L94.8075 32.9578L88.2253 26.8198ZM85.6791 29.5503L85.365 20.5558L77.5937 20.8272L77.9078 29.8217L78.2219 38.8162L85.9932 38.5448L85.6791 29.5503ZM77.9078 29.8217L84.0458 23.2395L81.3649 20.7395L75.2269 27.3217L69.0889 33.9039L71.7698 36.4039L77.9078 29.8217ZM90.4827 12.5723L90.1686 3.5778L81.1741 3.8919L81.4882 12.8864L90.4827 12.5723ZM93.7447 12.4584L102.739 12.1443L102.425 3.14979L93.4306 3.46389L93.7447 12.4584ZM94.331 29.2482L94.6451 38.2427L103.64 37.9286L103.326 28.9341L94.331 29.2482ZM91.069 29.3621L82.0745 29.6762L82.3886 38.6707L91.3831 38.3566L91.069 29.3621ZM90.4827 12.5723L90.7968 21.5668L94.0588 21.4529L93.7447 12.4584L93.4306 3.46389L90.1686 3.5778L90.4827 12.5723ZM93.7447 12.4584L84.7502 12.7725L85.3365 29.5623L94.331 29.2482L103.326 28.9341L102.739 12.1443L93.7447 12.4584ZM94.331 29.2482L94.0169 20.2537L90.7549 20.3676L91.069 29.3621L91.3831 38.3566L94.6451 38.2427L94.331 29.2482ZM91.069 29.3621L100.064 29.048L99.4772 12.2582L90.4827 12.5723L81.4882 12.8864L82.0745 29.6762L91.069 29.3621ZM100.902 14.9702L109.896 14.6561L109.582 5.66155L100.587 5.97565L100.902 14.9702ZM95.8886 15.1452L86.8941 15.4593L87.2082 24.4538L96.2027 24.1397L95.8886 15.1452ZM95.7923 12.3869L95.4782 3.39239L86.4837 3.70648L86.7978 12.701L95.7923 12.3869ZM109.08 11.9229L118.075 11.6088L117.761 2.61427L108.766 2.92836L109.08 11.9229ZM109.177 14.6812L109.491 23.6757L118.485 23.3616L118.171 14.3671L109.177 14.6812ZM104.164 14.8563L103.849 5.86174L94.855 6.17583L95.1691 15.1704L104.164 14.8563ZM104.654 28.8877L104.968 37.8822L113.962 37.5681L113.648 28.5736L104.654 28.8877ZM101.392 29.0016L92.397 29.3157L92.7111 38.3102L101.706 37.9961L101.392 29.0016ZM100.902 14.9702L100.587 5.97565L95.5745 6.15071L95.8886 15.1452L96.2027 24.1397L101.216 23.9647L100.902 14.9702ZM95.8886 15.1452L104.883 14.8311L104.787 12.0728L95.7923 12.3869L86.7978 12.701L86.8941 15.4593L95.8886 15.1452ZM95.7923 12.3869L96.1064 21.3814L109.394 20.9174L109.08 11.9229L108.766 2.92836L95.4782 3.39239L95.7923 12.3869ZM109.08 11.9229L100.086 12.237L100.182 14.9953L109.177 14.6812L118.171 14.3671L118.075 11.6088L109.08 11.9229ZM109.177 14.6812L108.862 5.68668L103.849 5.86174L104.164 14.8563L104.478 23.8508L109.491 23.6757L109.177 14.6812ZM104.164 14.8563L95.1691 15.1704L95.659 29.2018L104.654 28.8877L113.648 28.5736L113.158 14.5422L104.164 14.8563ZM104.654 28.8877L104.339 19.8932L101.077 20.0071L101.392 29.0016L101.706 37.9961L104.968 37.8822L104.654 28.8877ZM101.392 29.0016L110.386 28.6875L109.896 14.6561L100.902 14.9702L91.907 15.2843L92.397 29.3157L101.392 29.0016ZM117.534 11.6277L117.22 2.63316L108.225 2.94725L108.539 11.9418L117.534 11.6277ZM128.279 11.2524L134.417 4.67025L131.691 2.12782L127.965 2.25792L128.279 11.2524ZM131.258 14.0302L140.252 13.7161L140.122 9.99043L137.396 7.44799L131.258 14.0302ZM131.643 25.0634L138.225 31.2014L140.768 28.475L140.638 24.7494L131.643 25.0634ZM128.865 28.0422L129.18 37.0367L132.905 36.9066L135.448 34.1802L128.865 28.0422ZM118.12 28.4174L109.126 28.7315L109.44 37.7261L118.434 37.412L118.12 28.4174ZM127.161 25.316L127.475 34.3105L131.201 34.1804L133.743 31.454L127.161 25.316ZM128.342 24.05L134.924 30.188L137.466 27.4616L137.336 23.736L128.342 24.05ZM128.035 15.2714L137.03 14.9573L136.9 11.2317L134.173 8.68921L128.035 15.2714ZM126.769 14.0909L132.907 7.50868L130.181 4.96624L126.455 5.09634L126.769 14.0909ZM120.893 14.2961L120.579 5.30155L111.584 5.61565L111.898 14.6102L120.893 14.2961ZM121.285 25.5212L112.29 25.8353L112.604 34.8298L121.599 34.5157L121.285 25.5212ZM117.534 11.6277L117.848 20.6222L128.593 20.247L128.279 11.2524L127.965 2.25792L117.22 2.63316L117.534 11.6277ZM128.279 11.2524L122.141 17.8346L125.12 20.6124L131.258 14.0302L137.396 7.44799L134.417 4.67025L128.279 11.2524ZM131.258 14.0302L122.263 14.3443L122.649 25.3775L131.643 25.0634L140.638 24.7494L140.252 13.7161L131.258 14.0302ZM131.643 25.0634L125.061 18.9255L122.283 21.9042L128.865 28.0422L135.448 34.1802L138.225 31.2014L131.643 25.0634ZM128.865 28.0422L128.551 19.0477L117.806 19.4229L118.12 28.4174L118.434 37.412L129.18 37.0367L128.865 28.0422ZM118.12 28.4174L127.115 28.1033L126.528 11.3136L117.534 11.6277L108.539 11.9418L109.126 28.7315L118.12 28.4174ZM127.161 25.316L133.743 31.454L134.924 30.188L128.342 24.05L121.76 17.9121L120.579 19.178L127.161 25.316ZM128.342 24.05L137.336 23.736L137.03 14.9573L128.035 15.2714L119.041 15.5855L119.347 24.3641L128.342 24.05ZM128.035 15.2714L134.173 8.68921L132.907 7.50868L126.769 14.0909L120.631 20.673L121.897 21.8536L128.035 15.2714ZM126.769 14.0909L126.455 5.09634L120.579 5.30155L120.893 14.2961L121.207 23.2906L127.083 23.0854L126.769 14.0909ZM120.893 14.2961L111.898 14.6102L112.29 25.8353L121.285 25.5212L130.279 25.2071L129.887 13.982L120.893 14.2961ZM121.285 25.5212L121.599 34.5157L127.475 34.3105L127.161 25.316L126.847 16.3215L120.971 16.5267L121.285 25.5212ZM134.167 11.0468L133.853 2.05231L124.858 2.36641L125.173 11.3609L134.167 11.0468ZM137.429 10.9329L146.424 10.6188L146.109 1.6243L137.115 1.9384L137.429 10.9329ZM138.015 27.7227L138.329 36.7172L147.324 36.4031L147.01 27.4086L138.015 27.7227ZM134.753 27.8366L125.759 28.1507L126.073 37.1452L135.067 36.8311L134.753 27.8366ZM134.167 11.0468L134.481 20.0413L137.743 19.9274L137.429 10.9329L137.115 1.9384L133.853 2.05231L134.167 11.0468ZM137.429 10.9329L128.435 11.247L129.021 28.0368L138.015 27.7227L147.01 27.4086L146.424 10.6188L137.429 10.9329ZM138.015 27.7227L137.701 18.7282L134.439 18.8421L134.753 27.8366L135.067 36.8311L138.329 36.7172L138.015 27.7227ZM134.753 27.8366L143.748 27.5225L143.162 10.7327L134.167 11.0468L125.173 11.3609L125.759 28.1507L134.753 27.8366ZM151.03 15.7412L142.035 16.0553L142.35 25.0498L151.344 24.7357L151.03 15.7412ZM150.982 14.374L159.977 14.0599L159.847 10.3343L157.12 7.79184L150.982 14.374ZM149.816 13.2861L155.954 6.70389L153.227 4.16145L149.501 4.29155L149.816 13.2861ZM145.018 13.4536L144.704 4.45907L140.979 4.58917L138.436 7.3156L145.018 13.4536ZM143.838 14.7196L137.256 8.58157L134.713 11.308L134.843 15.0337L143.838 14.7196ZM144.144 23.4982L135.15 23.8123L135.28 27.538L138.006 30.0804L144.144 23.4982ZM145.41 24.6787L139.272 31.2609L141.999 33.8034L145.725 33.6733L145.41 24.6787ZM150.208 24.5112L150.522 33.5057L154.247 33.3756L156.79 30.6492L150.208 24.5112ZM151.295 23.3445L157.878 29.4825L160.42 26.7561L160.29 23.0305L151.295 23.3445ZM151.248 21.9774L150.934 12.9829L141.939 13.297L142.253 22.2915L151.248 21.9774ZM154.51 21.8635L163.504 21.5494L163.19 12.5549L154.196 12.869L154.51 21.8635ZM154.599 24.4299L161.182 30.5679L163.724 27.8415L163.594 24.1158L154.599 24.4299ZM151.984 27.2349L152.298 36.2294L156.023 36.0993L158.566 33.3729L151.984 27.2349ZM148.794 27.3463L148.479 18.3518L142.456 18.5621L140.357 24.2121L148.794 27.3463ZM148.486 28.1735L140.05 25.0393L135.37 37.6371L148.8 37.168L148.486 28.1735ZM149.734 28.13L155.872 21.5478L153.145 19.0054L149.419 19.1355L149.734 28.13ZM150.975 29.2874L159.969 28.9733L159.839 25.2476L157.113 22.7052L150.975 29.2874ZM151.048 31.3981L157.631 37.5361L160.173 34.8096L160.043 31.084L151.048 31.3981ZM149.845 32.6889L150.159 41.6834L153.884 41.5533L156.427 38.8269L149.845 32.6889ZM145.671 32.8346L136.677 33.1487L136.991 42.1432L145.985 41.8291L145.671 32.8346ZM145.609 31.0597L145.295 22.0652L136.301 22.3793L136.615 31.3738L145.609 31.0597ZM148.44 30.9609L148.754 39.9554L152.479 39.8253L155.022 37.0988L148.44 30.9609ZM148.717 30.663L155.299 36.801L157.842 34.0745L157.712 30.3489L148.717 30.663ZM148.696 30.0394L157.69 29.7253L157.56 25.9996L154.834 23.4572L148.696 30.0394ZM148.398 29.7616L154.536 23.1794L151.809 20.637L148.084 20.7671L148.398 29.7616ZM146.023 29.8445L137.029 30.1586L137.343 39.1531L146.337 38.839L146.023 29.8445ZM145.997 29.101L137.47 26.2233L136.945 27.7767L137.003 29.4151L145.997 29.101ZM146.563 27.4242L155.091 30.3018L159.25 17.9757L146.249 18.4297L146.563 27.4242ZM143.781 27.5214L137.643 34.1035L140.369 36.646L144.095 36.5159L143.781 27.5214ZM140.926 24.8594L131.931 25.1735L132.062 28.8991L134.788 31.4415L140.926 24.8594ZM140.532 13.5862L133.95 7.44825L131.408 10.1747L131.538 13.9003L140.532 13.5862ZM143.194 10.7316L142.88 1.73707L139.155 1.86717L136.612 4.5936L143.194 10.7316ZM151.397 10.4451L157.535 3.86295L154.809 1.32051L151.083 1.45062L151.397 10.4451ZM154.202 13.0608L163.197 12.7467L163.067 9.02109L160.34 6.47865L154.202 13.0608ZM154.292 15.6273L154.606 24.6218L163.601 24.3077L163.286 15.3132L154.292 15.6273ZM151.03 15.7412L160.024 15.4271L159.977 14.0599L150.982 14.374L141.988 14.6881L142.035 16.0553L151.03 15.7412ZM150.982 14.374L157.12 7.79184L155.954 6.70389L149.816 13.2861L143.678 19.8682L144.844 20.9562L150.982 14.374ZM149.816 13.2861L149.501 4.29155L144.704 4.45907L145.018 13.4536L145.333 22.4481L150.13 22.2806L149.816 13.2861ZM145.018 13.4536L138.436 7.3156L137.256 8.58157L143.838 14.7196L150.42 20.8575L151.601 19.5916L145.018 13.4536ZM143.838 14.7196L134.843 15.0337L135.15 23.8123L144.144 23.4982L153.139 23.1841L152.832 14.4055L143.838 14.7196ZM144.144 23.4982L138.006 30.0804L139.272 31.2609L145.41 24.6787L151.548 18.0966L150.282 16.916L144.144 23.4982ZM145.41 24.6787L145.725 33.6733L150.522 33.5057L150.208 24.5112L149.893 15.5167L145.096 15.6842L145.41 24.6787ZM150.208 24.5112L156.79 30.6492L157.878 29.4825L151.295 23.3445L144.713 17.2066L143.625 18.3732L150.208 24.5112ZM151.295 23.3445L160.29 23.0305L160.242 21.6633L151.248 21.9774L142.253 22.2915L142.301 23.6586L151.295 23.3445ZM151.248 21.9774L151.562 30.9719L154.824 30.858L154.51 21.8635L154.196 12.869L150.934 12.9829L151.248 21.9774ZM154.51 21.8635L145.515 22.1776L145.605 24.744L154.599 24.4299L163.594 24.1158L163.504 21.5494L154.51 21.8635ZM154.599 24.4299L148.017 18.2919L145.401 21.0969L151.984 27.2349L158.566 33.3729L161.182 30.5679L154.599 24.4299ZM151.984 27.2349L151.67 18.2404L148.479 18.3518L148.794 27.3463L149.108 36.3408L152.298 36.2294L151.984 27.2349ZM148.794 27.3463L140.357 24.2121L140.05 25.0393L148.486 28.1735L156.923 31.3078L157.23 30.4805L148.794 27.3463ZM148.486 28.1735L148.8 37.168L150.048 37.1245L149.734 28.13L149.419 19.1355L148.172 19.179L148.486 28.1735ZM149.734 28.13L143.596 34.7122L144.837 35.8695L150.975 29.2874L157.113 22.7052L155.872 21.5478L149.734 28.13ZM150.975 29.2874L141.98 29.6015L142.054 31.7122L151.048 31.3981L160.043 31.084L159.969 28.9733L150.975 29.2874ZM151.048 31.3981L144.466 25.2601L143.263 26.5509L149.845 32.6889L156.427 38.8269L157.631 37.5361L151.048 31.3981ZM149.845 32.6889L149.531 23.6944L145.357 23.8401L145.671 32.8346L145.985 41.8291L150.159 41.6834L149.845 32.6889ZM145.671 32.8346L154.666 32.5205L154.604 30.7456L145.609 31.0597L136.615 31.3738L136.677 33.1487L145.671 32.8346ZM145.609 31.0597L145.923 40.0542L148.754 39.9554L148.44 30.9609L148.125 21.9663L145.295 22.0652L145.609 31.0597ZM148.44 30.9609L155.022 37.0988L155.299 36.801L148.717 30.663L142.135 24.525L141.857 24.8229L148.44 30.9609ZM148.717 30.663L157.712 30.3489L157.69 29.7253L148.696 30.0394L139.701 30.3535L139.723 30.9771L148.717 30.663ZM148.696 30.0394L154.834 23.4572L154.536 23.1794L148.398 29.7616L142.26 36.3438L142.558 36.6215L148.696 30.0394ZM148.398 29.7616L148.084 20.7671L145.709 20.85L146.023 29.8445L146.337 38.839L148.712 38.7561L148.398 29.7616ZM146.023 29.8445L155.018 29.5304L154.992 28.7869L145.997 29.101L137.003 29.4151L137.029 30.1586L146.023 29.8445ZM145.997 29.101L154.525 31.9786L155.091 30.3018L146.563 27.4242L138.035 24.5466L137.47 26.2233L145.997 29.101ZM146.563 27.4242L146.249 18.4297L143.467 18.5268L143.781 27.5214L144.095 36.5159L146.877 36.4187L146.563 27.4242ZM143.781 27.5214L149.919 20.9392L147.064 18.2772L140.926 24.8594L134.788 31.4415L137.643 34.1035L143.781 27.5214ZM140.926 24.8594L149.921 24.5453L149.527 13.2721L140.532 13.5862L131.538 13.9003L131.931 25.1735L140.926 24.8594ZM140.532 13.5862L147.115 19.7242L149.777 16.8696L143.194 10.7316L136.612 4.5936L133.95 7.44825L140.532 13.5862ZM143.194 10.7316L143.508 19.7261L151.711 19.4397L151.397 10.4451L151.083 1.45062L142.88 1.73707L143.194 10.7316ZM151.397 10.4451L145.259 17.0273L148.064 19.643L154.202 13.0608L160.34 6.47865L157.535 3.86295L151.397 10.4451ZM154.202 13.0608L145.208 13.3749L145.297 15.9414L154.292 15.6273L163.286 15.3132L163.197 12.7467L154.202 13.0608ZM154.292 15.6273L153.978 6.63275L150.716 6.74666L151.03 15.7412L151.344 24.7357L154.606 24.6218L154.292 15.6273ZM156.393 10.2707L156.079 1.27617L147.084 1.59026L147.398 10.5848L156.393 10.2707ZM159.655 10.1568L168.649 9.84268L168.335 0.848161L159.341 1.16226L159.655 10.1568ZM159.9 17.1845L150.906 17.4986L151.22 26.4931L160.214 26.179L159.9 17.1845ZM162.443 17.0957L162.757 26.0902L167.952 25.9088L170.391 21.3176L162.443 17.0957ZM166.251 9.92644L165.937 0.93192L160.741 1.11335L158.303 5.70452L166.251 9.92644ZM169.921 9.79829L177.835 14.083L185.321 0.254998L169.607 0.803769L169.921 9.79829ZM165.296 18.3409L157.381 14.0562L154.769 18.8818L157.862 23.4142L165.296 18.3409ZM170.915 26.5738L171.229 35.5683L187.56 34.998L178.348 21.5005L170.915 26.5738ZM167.173 26.7045L159.739 31.7769L162.533 35.872L167.487 35.699L167.173 26.7045ZM162.516 19.8788L169.95 14.8064L167.156 10.7113L162.202 10.8843L162.516 19.8788ZM159.997 19.9668L159.683 10.9723L150.689 11.2864L151.003 20.2809L159.997 19.9668ZM160.241 26.9465L160.555 35.9411L169.55 35.627L169.236 26.6324L160.241 26.9465ZM156.979 27.0605L147.985 27.3745L148.299 36.3691L157.293 36.055L156.979 27.0605ZM156.393 10.2707L156.707 19.2652L159.969 19.1513L159.655 10.1568L159.341 1.16226L156.079 1.27617L156.393 10.2707ZM159.655 10.1568L150.66 10.4709L150.906 17.4986L159.9 17.1845L168.895 16.8704L168.649 9.84268L159.655 10.1568ZM159.9 17.1845L160.214 26.179L162.757 26.0902L162.443 17.0957L162.129 8.10119L159.586 8.18997L159.9 17.1845ZM162.443 17.0957L170.391 21.3176L174.199 14.1484L166.251 9.92644L158.303 5.70452L154.494 12.8738L162.443 17.0957ZM166.251 9.92644L166.565 18.921L170.235 18.7928L169.921 9.79829L169.607 0.803769L165.937 0.93192L166.251 9.92644ZM169.921 9.79829L162.006 5.51357L157.381 14.0562L165.296 18.3409L173.211 22.6256L177.835 14.083L169.921 9.79829ZM165.296 18.3409L157.862 23.4142L163.481 31.6472L170.915 26.5738L178.348 21.5005L172.73 13.2675L165.296 18.3409ZM170.915 26.5738L170.601 17.5793L166.859 17.71L167.173 26.7045L167.487 35.699L171.229 35.5683L170.915 26.5738ZM167.173 26.7045L174.607 21.6321L169.95 14.8064L162.516 19.8788L155.081 24.9513L159.739 31.7769L167.173 26.7045ZM162.516 19.8788L162.202 10.8843L159.683 10.9723L159.997 19.9668L160.312 28.9613L162.83 28.8734L162.516 19.8788ZM159.997 19.9668L151.003 20.2809L151.247 27.2606L160.241 26.9465L169.236 26.6324L168.992 19.6527L159.997 19.9668ZM160.241 26.9465L159.927 17.952L156.665 18.0659L156.979 27.0605L157.293 36.055L160.555 35.9411L160.241 26.9465ZM156.979 27.0605L165.974 26.7464L165.387 9.95659L156.393 10.2707L147.398 10.5848L147.985 27.3745L156.979 27.0605ZM176.717 9.56094L176.403 0.566424L170.115 0.785996L168.162 6.76662L176.717 9.56094ZM179.691 9.45708L188.031 6.07278L185.665 0.242991L179.377 0.462563L179.691 9.45708ZM186.418 26.0324L186.732 35.0269L199.599 34.5776L194.757 22.6481L186.418 26.0324ZM183.108 26.148L174.775 29.5472L177.146 35.3617L183.422 35.1425L183.108 26.148ZM181.611 22.478L189.944 19.0788L187.573 13.2643L181.297 13.4835L181.611 22.478ZM175.711 22.6841L175.397 13.6896L169.121 13.9087L167.16 19.8745L175.711 22.6841ZM174.473 26.4495L174.787 35.4441L181.063 35.2249L183.024 29.2592L174.473 26.4495ZM171.163 26.5651L162.608 23.7708L158.611 36.009L171.477 35.5596L171.163 26.5651ZM180.798 19.8168L181.112 28.8113L193.785 28.3687L189.185 16.5518L180.798 19.8168ZM178.344 13.5146L186.731 10.2496L184.414 4.29713L178.03 4.52005L178.344 13.5146ZM178.296 13.5162L177.982 4.52173L171.53 4.74704L169.676 10.931L178.296 13.5162ZM176.36 19.9717L167.74 17.3865L164.136 29.4041L176.674 28.9663L176.36 19.9717ZM176.717 9.56094L177.031 18.5555L180.006 18.4516L179.691 9.45708L179.377 0.462563L176.403 0.566424L176.717 9.56094ZM179.691 9.45708L171.352 12.8414L178.079 29.4167L186.418 26.0324L194.757 22.6481L188.031 6.07278L179.691 9.45708ZM186.418 26.0324L186.104 17.0379L182.794 17.1535L183.108 26.148L183.422 35.1425L186.732 35.0269L186.418 26.0324ZM183.108 26.148L191.441 22.7488L189.944 19.0788L181.611 22.478L173.278 25.8772L174.775 29.5472L183.108 26.148ZM181.611 22.478L181.297 13.4835L175.397 13.6896L175.711 22.6841L176.025 31.6786L181.925 31.4725L181.611 22.478ZM175.711 22.6841L167.16 19.8745L165.923 23.6399L174.473 26.4495L183.024 29.2592L184.261 25.4937L175.711 22.6841ZM174.473 26.4495L174.159 17.455L170.849 17.5706L171.163 26.5651L171.477 35.5596L174.787 35.4441L174.473 26.4495ZM171.163 26.5651L179.719 29.3595L185.272 12.3553L176.717 9.56094L168.162 6.76662L162.608 23.7708L171.163 26.5651ZM180.798 19.8168L189.185 16.5518L186.731 10.2496L178.344 13.5146L169.957 16.7796L172.411 23.0818L180.798 19.8168ZM178.344 13.5146L178.03 4.52005L177.982 4.52173L178.296 13.5162L178.61 22.5108L178.658 22.5091L178.344 13.5146ZM178.296 13.5162L169.676 10.931L167.74 17.3865L176.36 19.9717L184.981 22.5569L186.917 16.1014L178.296 13.5162ZM176.36 19.9717L176.674 28.9663L181.112 28.8113L180.798 19.8168L180.484 10.8223L176.046 10.9772L176.36 19.9717ZM11.0283 60.5825L2.03376 60.8966L2.16387 64.6222L4.8903 67.1647L11.0283 60.5825ZM10.9445 58.1839L10.6304 49.1894L1.63591 49.5035L1.95001 58.498L10.9445 58.1839ZM14.1586 58.0717L23.1531 57.7576L22.839 48.7631L13.8445 49.0772L14.1586 58.0717ZM14.208 59.4868L5.21346 59.8009L5.34357 63.5266L8.07 66.069L14.208 59.4868ZM15.0271 60.2507L8.88915 66.8329L11.6156 69.3753L15.3412 69.2452L15.0271 60.2507ZM19.9921 60.0773L20.3062 69.0719L24.0319 68.9418L26.5743 66.2153L19.9921 60.0773ZM20.7791 59.2334L27.3613 65.3714L29.9038 62.6449L29.7737 58.9193L20.7791 59.2334ZM20.682 56.4511L29.6765 56.137L29.5464 52.4113L26.82 49.8689L20.682 56.4511ZM19.8628 55.6872L26.0008 49.105L23.2744 46.5626L19.5487 46.6927L19.8628 55.6872ZM13.5067 55.9091L7.36871 62.4913L10.0951 65.0338L13.8208 64.9037L13.5067 55.9091ZM10.8258 53.4092L1.8313 53.7233L1.9614 57.4489L4.68783 59.9914L10.8258 53.4092ZM10.6709 48.9719L4.08868 42.8339L1.54624 45.5603L1.67634 49.286L10.6709 48.9719ZM13.1708 46.291L12.8567 37.2965L9.13107 37.4266L6.58864 40.153L13.1708 46.291ZM20.7502 46.0263L26.8882 39.4441L24.1618 36.9017L20.4361 37.0318L20.7502 46.0263ZM23.4311 48.5263L32.4256 48.2122L32.2955 44.4865L29.5691 41.9441L23.4311 48.5263ZM23.5157 50.9488L23.8298 59.9433L32.8243 59.6292L32.5102 50.6347L23.5157 50.9488ZM20.3016 51.0611L11.3071 51.3751L11.6212 60.3697L20.6157 60.0556L20.3016 51.0611ZM20.2514 49.6219L29.2459 49.3078L29.1158 45.5822L26.3894 43.0398L20.2514 49.6219ZM19.4322 48.858L25.5702 42.2759L22.8438 39.7334L19.1181 39.8635L19.4322 48.858ZM14.6831 49.0239L14.369 40.0294L10.6434 40.1595L8.10093 42.8859L14.6831 49.0239ZM13.9192 49.8431L7.33705 43.7051L4.79462 46.4315L4.92472 50.1571L13.9192 49.8431ZM14.0055 52.3135L5.011 52.6276L5.1411 56.3533L7.86753 58.8957L14.0055 52.3135ZM14.8247 53.0774L8.68669 59.6596L11.4131 62.202L15.1388 62.0719L14.8247 53.0774ZM21.1808 52.8555L27.3188 46.2733L24.5924 43.7308L20.8667 43.8609L21.1808 52.8555ZM23.8617 55.3554L32.8562 55.0413L32.7261 51.3157L29.9997 48.7732L23.8617 55.3554ZM24.0267 60.0805L30.6089 66.2185L33.1513 63.4921L33.0212 59.7664L24.0267 60.0805ZM21.4804 62.8111L21.7945 71.8056L25.5202 71.6755L28.0626 68.9491L21.4804 62.8111ZM13.7092 63.0824L7.57118 69.6646L10.2976 72.2071L14.0233 72.077L13.7092 63.0824ZM11.0283 60.5825L20.0228 60.2684L19.939 57.8699L10.9445 58.1839L1.95001 58.498L2.03376 60.8966L11.0283 60.5825ZM10.9445 58.1839L11.2586 67.1785L14.4727 67.0662L14.1586 58.0717L13.8445 49.0772L10.6304 49.1894L10.9445 58.1839ZM14.1586 58.0717L5.16405 58.3858L5.21346 59.8009L14.208 59.4868L23.2025 59.1728L23.1531 57.7576L14.1586 58.0717ZM14.208 59.4868L8.07 66.069L8.88915 66.8329L15.0271 60.2507L21.1651 53.6685L20.346 52.9047L14.208 59.4868ZM15.0271 60.2507L15.3412 69.2452L20.3062 69.0719L19.9921 60.0773L19.678 51.0828L14.713 51.2562L15.0271 60.2507ZM19.9921 60.0773L26.5743 66.2153L27.3613 65.3714L20.7791 59.2334L14.197 53.0954L13.4099 53.9394L19.9921 60.0773ZM20.7791 59.2334L29.7737 58.9193L29.6765 56.137L20.682 56.4511L11.6875 56.7652L11.7846 59.5475L20.7791 59.2334ZM20.682 56.4511L26.82 49.8689L26.0008 49.105L19.8628 55.6872L13.7248 62.2694L14.544 63.0332L20.682 56.4511ZM19.8628 55.6872L19.5487 46.6927L13.1926 46.9146L13.5067 55.9091L13.8208 64.9037L20.1769 64.6817L19.8628 55.6872ZM13.5067 55.9091L19.6447 49.327L16.9638 46.827L10.8258 53.4092L4.68783 59.9914L7.36871 62.4913L13.5067 55.9091ZM10.8258 53.4092L19.8203 53.0951L19.6654 48.6578L10.6709 48.9719L1.67634 49.286L1.8313 53.7233L10.8258 53.4092ZM10.6709 48.9719L17.253 55.1099L19.753 52.429L13.1708 46.291L6.58864 40.153L4.08868 42.8339L10.6709 48.9719ZM13.1708 46.291L13.4849 55.2855L21.0643 55.0208L20.7502 46.0263L20.4361 37.0318L12.8567 37.2965L13.1708 46.291ZM20.7502 46.0263L14.6122 52.6085L17.2931 55.1085L23.4311 48.5263L29.5691 41.9441L26.8882 39.4441L20.7502 46.0263ZM23.4311 48.5263L14.4366 48.8404L14.5212 51.2629L23.5157 50.9488L32.5102 50.6347L32.4256 48.2122L23.4311 48.5263ZM23.5157 50.9488L23.2016 41.9543L19.9875 42.0665L20.3016 51.0611L20.6157 60.0556L23.8298 59.9433L23.5157 50.9488ZM20.3016 51.0611L29.2962 50.747L29.2459 49.3078L20.2514 49.6219L11.2569 49.936L11.3071 51.3751L20.3016 51.0611ZM20.2514 49.6219L26.3894 43.0398L25.5702 42.2759L19.4322 48.858L13.2942 55.4402L14.1134 56.2041L20.2514 49.6219ZM19.4322 48.858L19.1181 39.8635L14.369 40.0294L14.6831 49.0239L14.9972 58.0184L19.7463 57.8526L19.4322 48.858ZM14.6831 49.0239L8.10093 42.8859L7.33705 43.7051L13.9192 49.8431L20.5014 55.981L21.2653 55.1619L14.6831 49.0239ZM13.9192 49.8431L4.92472 50.1571L5.011 52.6276L14.0055 52.3135L23 51.9994L22.9138 49.529L13.9192 49.8431ZM14.0055 52.3135L7.86753 58.8957L8.68669 59.6596L14.8247 53.0774L20.9627 46.4952L20.1435 45.7314L14.0055 52.3135ZM14.8247 53.0774L15.1388 62.0719L21.4949 61.85L21.1808 52.8555L20.8667 43.8609L14.5106 44.0829L14.8247 53.0774ZM21.1808 52.8555L15.0428 59.4376L17.7237 61.9376L23.8617 55.3554L29.9997 48.7732L27.3188 46.2733L21.1808 52.8555ZM23.8617 55.3554L14.8672 55.6695L15.0322 60.3946L24.0267 60.0805L33.0212 59.7664L32.8562 55.0413L23.8617 55.3554ZM24.0267 60.0805L17.4445 53.9426L14.8982 56.6731L21.4804 62.8111L28.0626 68.9491L30.6089 66.2185L24.0267 60.0805ZM21.4804 62.8111L21.1663 53.8166L13.3951 54.0879L13.7092 63.0824L14.0233 72.077L21.7945 71.8056L21.4804 62.8111ZM13.7092 63.0824L19.8471 56.5003L17.1663 54.0003L11.0283 60.5825L4.8903 67.1647L7.57118 69.6646L13.7092 63.0824ZM26.1642 45.8373L25.8501 36.8428L16.8555 37.1568L17.1696 46.1514L26.1642 45.8373ZM38.3008 45.4134L47.2953 45.0994L46.9812 36.1048L37.9867 36.4189L38.3008 45.4134ZM38.3971 48.1718L38.7112 57.1663L47.7057 56.8522L47.3916 47.8577L38.3971 48.1718ZM29.5225 48.4817L29.2084 39.4872L20.2139 39.8013L20.528 48.7958L29.5225 48.4817ZM29.6707 52.7271L20.6762 53.0412L20.9903 62.0357L29.9848 61.7216L29.6707 52.7271ZM37.8498 52.4415L46.8443 52.1274L46.5302 43.1329L37.5357 43.447L37.8498 52.4415ZM37.9444 55.1518L38.2585 64.1463L47.253 63.8322L46.9389 54.8377L37.9444 55.1518ZM29.7654 55.4374L29.4513 46.4429L20.4568 46.757L20.7709 55.7515L29.7654 55.4374ZM29.9162 59.7548L20.9216 60.0689L21.2357 69.0634L30.2302 68.7493L29.9162 59.7548ZM38.7907 59.4449L47.7853 59.1308L47.4712 50.1363L38.4766 50.4504L38.7907 59.4449ZM38.8871 62.2032L39.2012 71.1977L48.1957 70.8836L47.8816 61.8891L38.8871 62.2032ZM26.7505 62.627L17.7559 62.9411L18.07 71.9356L27.0646 71.6216L26.7505 62.627ZM26.1642 45.8373L26.4782 54.8318L38.6149 54.408L38.3008 45.4134L37.9867 36.4189L25.8501 36.8428L26.1642 45.8373ZM38.3008 45.4134L29.3062 45.7275L29.4026 48.4859L38.3971 48.1718L47.3916 47.8577L47.2953 45.0994L38.3008 45.4134ZM38.3971 48.1718L38.083 39.1773L29.2084 39.4872L29.5225 48.4817L29.8366 57.4762L38.7112 57.1663L38.3971 48.1718ZM29.5225 48.4817L20.528 48.7958L20.6762 53.0412L29.6707 52.7271L38.6653 52.413L38.517 48.1676L29.5225 48.4817ZM29.6707 52.7271L29.9848 61.7216L38.1639 61.436L37.8498 52.4415L37.5357 43.447L29.3566 43.7326L29.6707 52.7271ZM37.8498 52.4415L28.8552 52.7556L28.9499 55.4659L37.9444 55.1518L46.9389 54.8377L46.8443 52.1274L37.8498 52.4415ZM37.9444 55.1518L37.6303 46.1573L29.4513 46.4429L29.7654 55.4374L30.0795 64.432L38.2585 64.1463L37.9444 55.1518ZM29.7654 55.4374L20.7709 55.7515L20.9216 60.0689L29.9162 59.7548L38.9107 59.4407L38.7599 55.1233L29.7654 55.4374ZM29.9162 59.7548L30.2302 68.7493L39.1048 68.4394L38.7907 59.4449L38.4766 50.4504L29.6021 50.7603L29.9162 59.7548ZM38.7907 59.4449L29.7962 59.759L29.8925 62.5173L38.8871 62.2032L47.8816 61.8891L47.7853 59.1308L38.7907 59.4449ZM38.8871 62.2032L38.573 53.2087L26.4364 53.6325L26.7505 62.627L27.0646 71.6216L39.2012 71.1977L38.8871 62.2032ZM26.7505 62.627L35.745 62.3129L35.1587 45.5232L26.1642 45.8373L17.1696 46.1514L17.7559 62.9411L26.7505 62.627ZM47.2451 45.1011L46.931 36.1066L37.9364 36.4207L38.2505 45.4152L47.2451 45.1011ZM57.7746 44.7334L63.9432 38.1798L61.2107 35.6079L57.4605 35.7389L57.7746 44.7334ZM60.4315 47.2342L69.426 46.9201L69.2968 43.2189L66.6001 40.6806L60.4315 47.2342ZM60.6367 53.1106L67.2471 59.2182L69.7605 56.4979L69.6313 52.7965L60.6367 53.1106ZM58.1376 55.8155L58.4517 64.81L62.2017 64.6791L64.748 61.9231L58.1376 55.8155ZM50.894 56.0684L50.5799 47.0739L41.5854 47.388L41.8995 56.3825L50.894 56.0684ZM51.0934 61.777L51.4075 70.7715L60.402 70.4574L60.0879 61.4629L51.0934 61.777ZM47.8314 61.8909L38.8368 62.205L39.1509 71.1995L48.1455 70.8854L47.8314 61.8909ZM56.579 53.1322L56.8931 62.1268L60.6188 61.9967L63.1612 59.2702L56.579 53.1322ZM57.3892 52.2634L63.9714 58.4014L66.5138 55.675L66.3837 51.9494L57.3892 52.2634ZM57.2518 48.3298L66.2463 48.0157L66.1162 44.2901L63.3898 41.7477L57.2518 48.3298ZM56.383 47.5197L62.521 40.9375L59.7946 38.3951L56.0689 38.5252L56.383 47.5197ZM50.6025 47.7215L50.2885 38.727L41.2939 39.0411L41.608 48.0356L50.6025 47.7215ZM50.7985 53.3341L41.804 53.6482L42.1181 62.6427L51.1126 62.3286L50.7985 53.3341ZM47.2451 45.1011L47.5591 54.0956L58.0887 53.7279L57.7746 44.7334L57.4605 35.7389L46.931 36.1066L47.2451 45.1011ZM57.7746 44.7334L51.6061 51.287L54.263 53.7878L60.4315 47.2342L66.6001 40.6806L63.9432 38.1798L57.7746 44.7334ZM60.4315 47.2342L51.437 47.5483L51.6422 53.4247L60.6367 53.1106L69.6313 52.7965L69.426 46.9201L60.4315 47.2342ZM60.6367 53.1106L54.0263 47.003L51.5272 49.7079L58.1376 55.8155L64.748 61.9231L67.2471 59.2182L60.6367 53.1106ZM58.1376 55.8155L57.8235 46.821L50.5799 47.0739L50.894 56.0684L51.2081 65.063L58.4517 64.81L58.1376 55.8155ZM50.894 56.0684L41.8995 56.3825L42.0989 62.0911L51.0934 61.777L60.0879 61.4629L59.8885 55.7543L50.894 56.0684ZM51.0934 61.777L50.7793 52.7824L47.5173 52.8964L47.8314 61.8909L48.1455 70.8854L51.4075 70.7715L51.0934 61.777ZM47.8314 61.8909L56.8259 61.5768L56.2396 44.787L47.2451 45.1011L38.2505 45.4152L38.8368 62.205L47.8314 61.8909ZM56.579 53.1322L63.1612 59.2702L63.9714 58.4014L57.3892 52.2634L50.807 46.1255L49.9968 46.9943L56.579 53.1322ZM57.3892 52.2634L66.3837 51.9494L66.2463 48.0157L57.2518 48.3298L48.2573 48.6439L48.3947 52.5775L57.3892 52.2634ZM57.2518 48.3298L63.3898 41.7477L62.521 40.9375L56.383 47.5197L50.245 54.1019L51.1138 54.912L57.2518 48.3298ZM56.383 47.5197L56.0689 38.5252L50.2885 38.727L50.6025 47.7215L50.9166 56.716L56.6971 56.5142L56.383 47.5197ZM50.6025 47.7215L41.608 48.0356L41.804 53.6482L50.7985 53.3341L59.7931 53.02L59.5971 47.4074L50.6025 47.7215ZM50.7985 53.3341L51.1126 62.3286L56.8931 62.1268L56.579 53.1322L56.2649 44.1377L50.4844 44.3396L50.7985 53.3341ZM62.7512 44.5596L62.4371 35.5651L53.4426 35.8792L53.7567 44.8737L62.7512 44.5596ZM74.8878 44.1358L83.8823 43.8217L83.5683 34.8272L74.5737 35.1413L74.8878 44.1358ZM74.9842 46.8941L75.2982 55.8886L84.2928 55.5745L83.9787 46.58L74.9842 46.8941ZM66.1096 47.204L65.7955 38.2095L56.8009 38.5236L57.115 47.5181L66.1096 47.204ZM66.2578 51.4494L57.2633 51.7635L57.5774 60.7581L66.5719 60.444L66.2578 51.4494ZM74.4368 51.1638L83.4313 50.8497L83.1173 41.8552L74.1227 42.1693L74.4368 51.1638ZM74.5315 53.8742L74.8456 62.8687L83.8401 62.5546L83.526 53.5601L74.5315 53.8742ZM66.3525 54.1598L66.0384 45.1653L57.0438 45.4794L57.3579 54.4739L66.3525 54.1598ZM66.5032 58.4772L57.5087 58.7913L57.8228 67.7858L66.8173 67.4717L66.5032 58.4772ZM75.3778 58.1672L84.3723 57.8532L84.0582 48.8586L75.0637 49.1727L75.3778 58.1672ZM75.4741 60.9256L75.7882 69.9201L84.7828 69.606L84.4687 60.6115L75.4741 60.9256ZM63.3375 61.3494L54.343 61.6635L54.6571 70.658L63.6516 70.3439L63.3375 61.3494ZM62.7512 44.5596L63.0653 53.5541L75.2019 53.1303L74.8878 44.1358L74.5737 35.1413L62.4371 35.5651L62.7512 44.5596ZM74.8878 44.1358L65.8933 44.4499L65.9896 47.2082L74.9842 46.8941L83.9787 46.58L83.8823 43.8217L74.8878 44.1358ZM74.9842 46.8941L74.6701 37.8996L65.7955 38.2095L66.1096 47.204L66.4237 56.1985L75.2982 55.8886L74.9842 46.8941ZM66.1096 47.204L57.115 47.5181L57.2633 51.7635L66.2578 51.4494L75.2523 51.1353L75.1041 46.8899L66.1096 47.204ZM66.2578 51.4494L66.5719 60.444L74.7509 60.1583L74.4368 51.1638L74.1227 42.1693L65.9437 42.4549L66.2578 51.4494ZM74.4368 51.1638L65.4423 51.4779L65.537 54.1883L74.5315 53.8742L83.526 53.5601L83.4313 50.8497L74.4368 51.1638ZM74.5315 53.8742L74.2174 44.8797L66.0384 45.1653L66.3525 54.1598L66.6666 63.1543L74.8456 62.8687L74.5315 53.8742ZM66.3525 54.1598L57.3579 54.4739L57.5087 58.7913L66.5032 58.4772L75.4977 58.1631L75.347 53.8457L66.3525 54.1598ZM66.5032 58.4772L66.8173 67.4717L75.6919 67.1618L75.3778 58.1672L75.0637 49.1727L66.1891 49.4826L66.5032 58.4772ZM75.3778 58.1672L66.3833 58.4813L66.4796 61.2397L75.4741 60.9256L84.4687 60.6115L84.3723 57.8532L75.3778 58.1672ZM75.4741 60.9256L75.16 51.9311L63.0234 52.3549L63.3375 61.3494L63.6516 70.3439L75.7882 69.9201L75.4741 60.9256ZM63.3375 61.3494L72.3321 61.0353L71.7457 44.2455L62.7512 44.5596L53.7567 44.8737L54.343 61.6635L63.3375 61.3494ZM83.9682 58.0354L74.9737 58.3495L75.1038 62.0751L77.8302 64.6176L83.9682 58.0354ZM83.8844 55.6368L83.5703 46.6423L74.5758 46.9564L74.8899 55.9509L83.8844 55.6368ZM87.0985 55.5246L96.093 55.2105L95.7789 46.216L86.7844 46.5301L87.0985 55.5246ZM87.1479 56.9397L78.1534 57.2538L78.2835 60.9795L81.0099 63.5219L87.1479 56.9397ZM87.9671 57.7036L81.8291 64.2858L84.5555 66.8282L88.2812 66.6981L87.9671 57.7036ZM92.932 57.5302L93.2461 66.5247L96.9718 66.3946L99.5142 63.6682L92.932 57.5302ZM93.7191 56.6862L100.301 62.8242L102.844 60.0978L102.714 56.3722L93.7191 56.6862ZM93.6219 53.9039L102.616 53.5898L102.486 49.8642L99.7599 47.3218L93.6219 53.9039ZM92.8027 53.1401L98.9407 46.5579L96.2143 44.0154L92.4886 44.1455L92.8027 53.1401ZM86.4466 53.362L80.3086 59.9442L83.0351 62.4866L86.7607 62.3565L86.4466 53.362ZM83.7657 50.8621L74.7712 51.1762L74.9013 54.9018L77.6277 57.4442L83.7657 50.8621ZM83.6108 46.4248L77.0286 40.2868L74.4862 43.0132L74.6163 46.7389L83.6108 46.4248ZM86.1107 43.7439L85.7966 34.7494L82.071 34.8795L79.5286 37.6059L86.1107 43.7439ZM93.6901 43.4792L99.8281 36.897L97.1017 34.3546L93.376 34.4847L93.6901 43.4792ZM96.371 45.9792L105.366 45.6651L105.235 41.9394L102.509 39.397L96.371 45.9792ZM96.4556 48.4017L96.7697 57.3962L105.764 57.0821L105.45 48.0876L96.4556 48.4017ZM93.2416 48.5139L84.247 48.828L84.5611 57.8225L93.5556 57.5085L93.2416 48.5139ZM93.1913 47.0748L102.186 46.7607L102.056 43.0351L99.3293 40.4926L93.1913 47.0748ZM92.3721 46.3109L98.5101 39.7288L95.7837 37.1863L92.058 37.3164L92.3721 46.3109ZM87.623 46.4768L87.3089 37.4823L83.5833 37.6124L81.0408 40.3388L87.623 46.4768ZM86.8592 47.2959L80.277 41.158L77.7345 43.8844L77.8646 47.61L86.8592 47.2959ZM86.9454 49.7664L77.9509 50.0805L78.081 53.8062L80.8074 56.3486L86.9454 49.7664ZM87.7646 50.5303L81.6266 57.1125L84.353 59.6549L88.0787 59.5248L87.7646 50.5303ZM94.1207 50.3083L100.259 43.7262L97.5323 41.1837L93.8066 41.3138L94.1207 50.3083ZM96.8016 52.8083L105.796 52.4942L105.666 48.7686L102.94 46.2261L96.8016 52.8083ZM96.9666 57.5334L103.549 63.6714L106.091 60.945L105.961 57.2193L96.9666 57.5334ZM94.4203 60.264L94.7344 69.2585L98.4601 69.1284L101.003 66.4019L94.4203 60.264ZM86.6491 60.5353L80.5111 67.1175L83.2375 69.66L86.9632 69.5298L86.6491 60.5353ZM83.9682 58.0354L92.9627 57.7213L92.879 55.3227L83.8844 55.6368L74.8899 55.9509L74.9737 58.3495L83.9682 58.0354ZM83.8844 55.6368L84.1985 64.6313L87.4126 64.5191L87.0985 55.5246L86.7844 46.5301L83.5703 46.6423L83.8844 55.6368ZM87.0985 55.5246L78.104 55.8387L78.1534 57.2538L87.1479 56.9397L96.1424 56.6256L96.093 55.2105L87.0985 55.5246ZM87.1479 56.9397L81.0099 63.5219L81.8291 64.2858L87.9671 57.7036L94.105 51.1214L93.2859 50.3575L87.1479 56.9397ZM87.9671 57.7036L88.2812 66.6981L93.2461 66.5247L92.932 57.5302L92.6179 48.5357L87.653 48.7091L87.9671 57.7036ZM92.932 57.5302L99.5142 63.6682L100.301 62.8242L93.7191 56.6862L87.1369 50.5483L86.3498 51.3922L92.932 57.5302ZM93.7191 56.6862L102.714 56.3722L102.616 53.5898L93.6219 53.9039L84.6274 54.218L84.7245 57.0003L93.7191 56.6862ZM93.6219 53.9039L99.7599 47.3218L98.9407 46.5579L92.8027 53.1401L86.6648 59.7222L87.4839 60.4861L93.6219 53.9039ZM92.8027 53.1401L92.4886 44.1455L86.1325 44.3675L86.4466 53.362L86.7607 62.3565L93.1168 62.1346L92.8027 53.1401ZM86.4466 53.362L92.5846 46.7798L89.9037 44.2799L83.7657 50.8621L77.6277 57.4442L80.3086 59.9442L86.4466 53.362ZM83.7657 50.8621L92.7602 50.548L92.6053 46.1107L83.6108 46.4248L74.6163 46.7389L74.7712 51.1762L83.7657 50.8621ZM83.6108 46.4248L90.193 52.5628L92.6929 49.8819L86.1107 43.7439L79.5286 37.6059L77.0286 40.2868L83.6108 46.4248ZM86.1107 43.7439L86.4248 52.7384L94.0042 52.4737L93.6901 43.4792L93.376 34.4847L85.7966 34.7494L86.1107 43.7439ZM93.6901 43.4792L87.5521 50.0614L90.233 52.5614L96.371 45.9792L102.509 39.397L99.8281 36.897L93.6901 43.4792ZM96.371 45.9792L87.3765 46.2933L87.4611 48.7158L96.4556 48.4017L105.45 48.0876L105.366 45.6651L96.371 45.9792ZM96.4556 48.4017L96.1415 39.4072L92.9275 39.5194L93.2416 48.5139L93.5556 57.5085L96.7697 57.3962L96.4556 48.4017ZM93.2416 48.5139L102.236 48.1998L102.186 46.7607L93.1913 47.0748L84.1968 47.3889L84.247 48.828L93.2416 48.5139ZM93.1913 47.0748L99.3293 40.4926L98.5101 39.7288L92.3721 46.3109L86.2341 52.8931L87.0533 53.657L93.1913 47.0748ZM92.3721 46.3109L92.058 37.3164L87.3089 37.4823L87.623 46.4768L87.9371 55.4713L92.6862 55.3054L92.3721 46.3109ZM87.623 46.4768L81.0408 40.3388L80.277 41.158L86.8592 47.2959L93.4413 53.4339L94.2052 52.6148L87.623 46.4768ZM86.8592 47.2959L77.8646 47.61L77.9509 50.0805L86.9454 49.7664L95.9399 49.4523L95.8537 46.9818L86.8592 47.2959ZM86.9454 49.7664L80.8074 56.3486L81.6266 57.1125L87.7646 50.5303L93.9026 43.9481L93.0834 43.1842L86.9454 49.7664ZM87.7646 50.5303L88.0787 59.5248L94.4348 59.3029L94.1207 50.3083L93.8066 41.3138L87.4505 41.5358L87.7646 50.5303ZM94.1207 50.3083L87.9827 56.8905L90.6636 59.3905L96.8016 52.8083L102.94 46.2261L100.259 43.7262L94.1207 50.3083ZM96.8016 52.8083L87.8071 53.1224L87.9721 57.8475L96.9666 57.5334L105.961 57.2193L105.796 52.4942L96.8016 52.8083ZM96.9666 57.5334L90.3844 51.3954L87.8382 54.126L94.4203 60.264L101.003 66.4019L103.549 63.6714L96.9666 57.5334ZM94.4203 60.264L94.1062 51.2694L86.335 51.5408L86.6491 60.5353L86.9632 69.5298L94.7344 69.2585L94.4203 60.264ZM86.6491 60.5353L92.7871 53.9531L90.1062 51.4532L83.9682 58.0354L77.8302 64.6176L80.5111 67.1175L86.6491 60.5353ZM99.1041 43.2902L98.79 34.2956L89.7955 34.6097L90.1096 43.6042L99.1041 43.2902ZM102.366 43.1762L111.361 42.8621L111.047 33.8676L102.052 34.1817L102.366 43.1762ZM102.611 50.204L93.617 50.5181L93.9311 59.5126L102.926 59.1985L102.611 50.204ZM109.711 49.956L110.025 58.9505L119.02 58.6365L118.706 49.6419L109.711 49.956ZM109.466 42.9283L109.152 33.9338L100.157 34.2479L100.471 43.2424L109.466 42.9283ZM112.728 42.8144L121.722 42.5003L121.408 33.5058L112.414 33.8199L112.728 42.8144ZM113.314 59.6042L113.628 68.5987L122.623 68.2846L122.309 59.2901L113.314 59.6042ZM110.052 59.7181L101.058 60.0322L101.372 69.0267L110.366 68.7126L110.052 59.7181ZM109.808 52.7383L118.803 52.4242L118.489 43.4297L109.494 43.7438L109.808 52.7383ZM102.709 52.9863L102.395 43.9917L93.4 44.3058L93.7141 53.3004L102.709 52.9863ZM102.952 59.966L103.266 68.9605L112.261 68.6464L111.947 59.6519L102.952 59.966ZM99.6904 60.0799L90.6959 60.394L91.01 69.3885L100.004 69.0744L99.6904 60.0799ZM99.1041 43.2902L99.4182 52.2847L102.68 52.1708L102.366 43.1762L102.052 34.1817L98.79 34.2956L99.1041 43.2902ZM102.366 43.1762L93.3716 43.4903L93.617 50.5181L102.611 50.204L111.606 49.8899L111.361 42.8621L102.366 43.1762ZM102.611 50.204L102.926 59.1985L110.025 58.9505L109.711 49.956L109.397 40.9615L102.297 41.2094L102.611 50.204ZM109.711 49.956L118.706 49.6419L118.46 42.6142L109.466 42.9283L100.471 43.2424L100.717 50.2701L109.711 49.956ZM109.466 42.9283L109.78 51.9228L113.042 51.8089L112.728 42.8144L112.414 33.8199L109.152 33.9338L109.466 42.9283ZM112.728 42.8144L103.733 43.1285L104.32 59.9183L113.314 59.6042L122.309 59.2901L121.722 42.5003L112.728 42.8144ZM113.314 59.6042L113 50.6097L109.738 50.7236L110.052 59.7181L110.366 68.7126L113.628 68.5987L113.314 59.6042ZM110.052 59.7181L119.047 59.404L118.803 52.4242L109.808 52.7383L100.814 53.0524L101.058 60.0322L110.052 59.7181ZM109.808 52.7383L109.494 43.7438L102.395 43.9917L102.709 52.9863L103.023 61.9808L110.122 61.7329L109.808 52.7383ZM102.709 52.9863L93.7141 53.3004L93.9579 60.2801L102.952 59.966L111.947 59.6519L111.703 52.6722L102.709 52.9863ZM102.952 59.966L102.638 50.9715L99.3763 51.0854L99.6904 60.0799L100.004 69.0744L103.266 68.9605L102.952 59.966ZM99.6904 60.0799L108.685 59.7658L108.099 42.9761L99.1041 43.2902L90.1096 43.6042L90.6959 60.394L99.6904 60.0799ZM116.102 56.7451L107.107 57.0592L107.237 60.7849L109.964 63.3273L116.102 56.7451ZM115.708 45.472L109.126 39.334L106.584 42.0605L106.714 45.7861L115.708 45.472ZM118.37 42.6174L118.056 33.6228L114.33 33.753L111.788 36.4794L118.37 42.6174ZM127.005 42.3158L133.143 35.7336L130.416 33.1912L126.691 33.3213L127.005 42.3158ZM129.86 44.9778L138.854 44.6637L138.724 40.9381L135.998 38.3956L129.86 44.9778ZM130.253 56.251L136.835 62.3889L139.378 59.6625L139.248 55.9369L130.253 56.251ZM127.591 59.1056L127.905 68.1001L131.631 67.97L134.173 65.2436L127.591 59.1056ZM118.956 59.4071L112.818 65.9893L115.545 68.5318L119.271 68.4016L118.956 59.4071ZM125.767 56.3836L126.081 65.3781L129.807 65.248L132.349 62.5216L125.767 56.3836ZM126.948 55.1176L133.53 61.2556L136.072 58.5292L135.942 54.8035L126.948 55.1176ZM126.641 46.339L135.636 46.0249L135.505 42.2992L132.779 39.7568L126.641 46.339ZM125.375 45.1584L131.513 38.5763L128.787 36.0338L125.061 36.1639L125.375 45.1584ZM120.194 45.3394L119.88 36.3448L116.154 36.4749L113.612 39.2014L120.194 45.3394ZM119.014 46.6053L112.432 40.4673L109.889 43.1938L110.019 46.9194L119.014 46.6053ZM119.32 55.384L110.326 55.6981L110.456 59.4237L113.182 61.9662L119.32 55.384ZM120.586 56.5645L114.448 63.1467L117.175 65.6891L120.9 65.559L120.586 56.5645ZM116.102 56.7451L125.096 56.431L124.703 45.1579L115.708 45.472L106.714 45.7861L107.107 57.0592L116.102 56.7451ZM115.708 45.472L122.29 51.61L124.952 48.7554L118.37 42.6174L111.788 36.4794L109.126 39.334L115.708 45.472ZM118.37 42.6174L118.684 51.6119L127.319 51.3104L127.005 42.3158L126.691 33.3213L118.056 33.6228L118.37 42.6174ZM127.005 42.3158L120.867 48.898L123.722 51.56L129.86 44.9778L135.998 38.3956L133.143 35.7336L127.005 42.3158ZM129.86 44.9778L120.865 45.2919L121.259 56.5651L130.253 56.251L139.248 55.9369L138.854 44.6637L129.86 44.9778ZM130.253 56.251L123.671 50.113L121.009 52.9676L127.591 59.1056L134.173 65.2436L136.835 62.3889L130.253 56.251ZM127.591 59.1056L127.277 50.1111L118.642 50.4126L118.956 59.4071L119.271 68.4016L127.905 68.1001L127.591 59.1056ZM118.956 59.4071L125.094 52.8249L122.24 50.163L116.102 56.7451L109.964 63.3273L112.818 65.9893L118.956 59.4071ZM125.767 56.3836L132.349 62.5216L133.53 61.2556L126.948 55.1176L120.365 48.9796L119.185 50.2456L125.767 56.3836ZM126.948 55.1176L135.942 54.8035L135.636 46.0249L126.641 46.339L117.647 46.6531L117.953 55.4317L126.948 55.1176ZM126.641 46.339L132.779 39.7568L131.513 38.5763L125.375 45.1584L119.237 51.7406L120.503 52.9212L126.641 46.339ZM125.375 45.1584L125.061 36.1639L119.88 36.3448L120.194 45.3394L120.508 54.3339L125.689 54.153L125.375 45.1584ZM120.194 45.3394L113.612 39.2014L112.432 40.4673L119.014 46.6053L125.596 52.7433L126.776 51.4773L120.194 45.3394ZM119.014 46.6053L110.019 46.9194L110.326 55.6981L119.32 55.384L128.315 55.0699L128.008 46.2912L119.014 46.6053ZM119.32 55.384L113.182 61.9662L114.448 63.1467L120.586 56.5645L126.724 49.9823L125.458 48.8018L119.32 55.384ZM120.586 56.5645L120.9 65.559L126.081 65.3781L125.767 56.3836L125.453 47.3891L120.272 47.57L120.586 56.5645ZM132.646 42.1188L132.332 33.1243L123.338 33.4384L123.652 42.4329L132.646 42.1188ZM135.908 42.0049L144.903 41.6908L144.589 32.6963L135.594 33.0104L135.908 42.0049ZM136.154 49.0326L127.159 49.3467L127.473 58.3413L136.468 58.0272L136.154 49.0326ZM143.253 48.7847L143.567 57.7792L152.562 57.4651L152.248 48.4706L143.253 48.7847ZM143.008 41.757L142.694 32.7625L133.699 33.0766L134.013 42.0711L143.008 41.757ZM146.27 41.6431L155.264 41.329L154.95 32.3345L145.956 32.6486L146.27 41.6431ZM146.856 58.4329L147.17 67.4274L156.165 67.1133L155.851 58.1188L146.856 58.4329ZM143.594 58.5468L134.6 58.8609L134.914 67.8554L143.908 67.5413L143.594 58.5468ZM143.35 51.567L152.345 51.2529L152.031 42.2584L143.036 42.5725L143.35 51.567ZM136.251 51.8149L135.937 42.8204L126.942 43.1345L127.256 52.129L136.251 51.8149ZM136.494 58.7947L136.809 67.7892L145.803 67.4751L145.489 58.4806L136.494 58.7947ZM133.232 58.9086L124.238 59.2227L124.552 68.2172L133.547 67.9031L133.232 58.9086ZM132.646 42.1188L132.96 51.1134L136.222 50.9994L135.908 42.0049L135.594 33.0104L132.332 33.1243L132.646 42.1188ZM135.908 42.0049L126.914 42.319L127.159 49.3467L136.154 49.0326L145.148 48.7185L144.903 41.6908L135.908 42.0049ZM136.154 49.0326L136.468 58.0272L143.567 57.7792L143.253 48.7847L142.939 39.7902L135.839 40.0381L136.154 49.0326ZM143.253 48.7847L152.248 48.4706L152.002 41.4429L143.008 41.757L134.013 42.0711L134.259 49.0988L143.253 48.7847ZM143.008 41.757L143.322 50.7515L146.584 50.6376L146.27 41.6431L145.956 32.6486L142.694 32.7625L143.008 41.757ZM146.27 41.6431L137.275 41.9572L137.862 58.7469L146.856 58.4329L155.851 58.1188L155.264 41.329L146.27 41.6431ZM146.856 58.4329L146.542 49.4383L143.28 49.5522L143.594 58.5468L143.908 67.5413L147.17 67.4274L146.856 58.4329ZM143.594 58.5468L152.589 58.2327L152.345 51.2529L143.35 51.567L134.356 51.8811L134.6 58.8609L143.594 58.5468ZM143.35 51.567L143.036 42.5725L135.937 42.8204L136.251 51.8149L136.565 60.8095L143.664 60.5615L143.35 51.567ZM136.251 51.8149L127.256 52.129L127.5 59.1088L136.494 58.7947L145.489 58.4806L145.245 51.5009L136.251 51.8149ZM136.494 58.7947L136.18 49.8002L132.918 49.9141L133.232 58.9086L133.547 67.9031L136.809 67.7892L136.494 58.7947ZM133.232 58.9086L142.227 58.5945L141.641 41.8047L132.646 42.1188L123.652 42.4329L124.238 59.2227L133.232 58.9086ZM155.334 55.231L146.34 55.5451L146.469 59.2489L149.169 61.7877L155.334 55.231ZM155.226 52.1129L154.911 43.1184L145.917 43.4325L146.231 52.427L155.226 52.1129ZM158.392 52.0024L167.386 51.6883L167.072 42.6937L158.078 43.0078L158.392 52.0024ZM158.462 54.0171L149.467 54.3312L149.598 58.0569L152.324 60.5993L158.462 54.0171ZM159.728 55.1977L153.59 61.7798L156.316 64.3223L160.042 64.1922L159.728 55.1977ZM162.918 55.0863L163.232 64.0808L166.902 63.9526L169.435 61.2932L162.918 55.0863ZM164.03 53.9187L170.547 60.1257L173.156 57.3859L173.024 53.6047L164.03 53.9187ZM163.58 41.0386L163.266 32.0441L154.272 32.3582L154.586 41.3527L163.58 41.0386ZM166.842 40.9247L175.837 40.6106L175.523 31.6161L166.528 31.9302L166.842 40.9247ZM167.33 54.9082L173.913 61.0461L176.455 58.3197L176.325 54.5941L167.33 54.9082ZM164.622 57.8125L164.936 66.807L168.662 66.6769L171.204 63.9504L164.622 57.8125ZM158.314 58.0327L152.149 64.5894L154.881 67.1581L158.628 67.0273L158.314 58.0327ZM155.334 55.231L164.329 54.9169L164.22 51.7988L155.226 52.1129L146.231 52.427L146.34 55.5451L155.334 55.231ZM155.226 52.1129L155.54 61.1074L158.706 60.9969L158.392 52.0024L158.078 43.0078L154.911 43.1184L155.226 52.1129ZM158.392 52.0024L149.397 52.3164L149.467 54.3312L158.462 54.0171L167.456 53.703L167.386 51.6883L158.392 52.0024ZM158.462 54.0171L152.324 60.5993L153.59 61.7798L159.728 55.1977L165.866 48.6155L164.6 47.4349L158.462 54.0171ZM159.728 55.1977L160.042 64.1922L163.232 64.0808L162.918 55.0863L162.604 46.0917L159.414 46.2031L159.728 55.1977ZM162.918 55.0863L169.435 61.2932L170.547 60.1257L164.03 53.9187L157.513 47.7118L156.401 48.8793L162.918 55.0863ZM164.03 53.9187L173.024 53.6047L172.575 40.7245L163.58 41.0386L154.586 41.3527L155.035 54.2328L164.03 53.9187ZM163.58 41.0386L163.894 50.0331L167.156 49.9192L166.842 40.9247L166.528 31.9302L163.266 32.0441L163.58 41.0386ZM166.842 40.9247L157.848 41.2388L158.336 55.2223L167.33 54.9082L176.325 54.5941L175.837 40.6106L166.842 40.9247ZM167.33 54.9082L160.748 48.7702L158.04 51.6745L164.622 57.8125L171.204 63.9504L173.913 61.0461L167.33 54.9082ZM164.622 57.8125L164.308 48.8179L158 49.0382L158.314 58.0327L158.628 67.0273L164.936 66.807L164.622 57.8125ZM158.314 58.0327L164.479 51.4761L161.5 48.6744L155.334 55.231L149.169 61.7877L152.149 64.5894L158.314 58.0327ZM169.842 40.8199L169.528 31.8254L160.534 32.1395L160.848 41.134L169.842 40.8199ZM181.979 40.3961L190.973 40.082L190.659 31.0875L181.665 31.4016L181.979 40.3961ZM182.075 43.1544L182.389 52.1489L191.384 51.8348L191.07 42.8403L182.075 43.1544ZM173.201 43.4643L172.886 34.4698L163.892 34.7839L164.206 43.7784L173.201 43.4643ZM173.349 47.7097L164.354 48.0238L164.668 57.0184L173.663 56.7043L173.349 47.7097ZM181.528 47.4241L190.522 47.11L190.208 38.1155L181.214 38.4296L181.528 47.4241ZM181.622 50.1345L181.937 59.129L190.931 58.8149L190.617 49.8204L181.622 50.1345ZM173.443 50.4201L173.129 41.4256L164.135 41.7397L164.449 50.7342L173.443 50.4201ZM173.594 54.7375L164.6 55.0516L164.914 64.0461L173.908 63.732L173.594 54.7375ZM182.469 54.4276L191.463 54.1135L191.149 45.1189L182.155 45.433L182.469 54.4276ZM182.565 57.1859L182.879 66.1804L191.874 65.8663L191.56 56.8718L182.565 57.1859ZM170.429 57.6097L161.434 57.9238L161.748 66.9183L170.743 66.6042L170.429 57.6097ZM169.842 40.8199L170.156 49.8144L182.293 49.3906L181.979 40.3961L181.665 31.4016L169.528 31.8254L169.842 40.8199ZM181.979 40.3961L172.984 40.7102L173.081 43.4685L182.075 43.1544L191.07 42.8403L190.973 40.082L181.979 40.3961ZM182.075 43.1544L181.761 34.1599L172.886 34.4698L173.201 43.4643L173.515 52.4588L182.389 52.1489L182.075 43.1544ZM173.201 43.4643L164.206 43.7784L164.354 48.0238L173.349 47.7097L182.343 47.3956L182.195 43.1502L173.201 43.4643ZM173.349 47.7097L173.663 56.7043L181.842 56.4186L181.528 47.4241L181.214 38.4296L173.035 38.7152L173.349 47.7097ZM181.528 47.4241L172.533 47.7382L172.628 50.4486L181.622 50.1345L190.617 49.8204L190.522 47.11L181.528 47.4241ZM181.622 50.1345L181.308 41.14L173.129 41.4256L173.443 50.4201L173.758 59.4146L181.937 59.129L181.622 50.1345ZM173.443 50.4201L164.449 50.7342L164.6 55.0516L173.594 54.7375L182.589 54.4234L182.438 50.106L173.443 50.4201ZM173.594 54.7375L173.908 63.732L182.783 63.4221L182.469 54.4276L182.155 45.433L173.28 45.7429L173.594 54.7375ZM182.469 54.4276L173.474 54.7416L173.571 57.5L182.565 57.1859L191.56 56.8718L191.463 54.1135L182.469 54.4276ZM182.565 57.1859L182.251 48.1914L170.114 48.6152L170.429 57.6097L170.743 66.6042L182.879 66.1804L182.565 57.1859ZM170.429 57.6097L179.423 57.2956L178.837 40.5058L169.842 40.8199L160.848 41.134L161.434 57.9238L170.429 57.6097ZM191.409 53.9953L182.414 54.3094L182.544 58.035L185.271 60.5775L191.409 53.9953ZM190.923 40.0838L190.609 31.0892L181.614 31.4033L181.929 40.3979L190.923 40.0838ZM194.185 39.9698L203.18 39.6558L202.866 30.6612L193.871 30.9753L194.185 39.9698ZM194.632 52.7541L185.637 53.0682L185.767 56.7938L188.494 59.3362L194.632 52.7541ZM195.898 53.9346L189.76 60.5168L192.486 63.0592L196.212 62.9291L195.898 53.9346ZM200.599 53.7704L200.913 62.7649L204.638 62.6348L207.181 59.9084L200.599 53.7704ZM201.779 52.5045L208.361 58.6424L210.904 55.916L210.774 52.1904L201.779 52.5045ZM201.333 39.7202L201.019 30.7257L192.024 31.0398L192.338 40.0343L201.333 39.7202ZM204.595 39.6063L213.589 39.2922L213.275 30.2977L204.281 30.6118L204.595 39.6063ZM205.081 53.5179L211.663 59.6558L214.205 56.9294L214.075 53.2038L205.081 53.5179ZM202.303 56.4966L202.617 65.4911L206.343 65.361L208.885 62.6346L202.303 56.4966ZM194.388 56.773L188.25 63.3552L190.976 65.8976L194.702 65.7675L194.388 56.773ZM191.409 53.9953L200.403 53.6812L199.918 39.7697L190.923 40.0838L181.929 40.3979L182.414 54.3094L191.409 53.9953ZM190.923 40.0838L191.237 49.0783L194.499 48.9644L194.185 39.9698L193.871 30.9753L190.609 31.0892L190.923 40.0838ZM194.185 39.9698L185.191 40.2839L185.637 53.0682L194.632 52.7541L203.626 52.44L203.18 39.6558L194.185 39.9698ZM194.632 52.7541L188.494 59.3362L189.76 60.5168L195.898 53.9346L202.036 47.3524L200.77 46.1719L194.632 52.7541ZM195.898 53.9346L196.212 62.9291L200.913 62.7649L200.599 53.7704L200.285 44.7759L195.583 44.9401L195.898 53.9346ZM200.599 53.7704L207.181 59.9084L208.361 58.6424L201.779 52.5045L195.197 46.3665L194.016 47.6324L200.599 53.7704ZM201.779 52.5045L210.774 52.1904L210.327 39.4062L201.333 39.7202L192.338 40.0343L192.785 52.8186L201.779 52.5045ZM201.333 39.7202L201.647 48.7148L204.909 48.6009L204.595 39.6063L204.281 30.6118L201.019 30.7257L201.333 39.7202ZM204.595 39.6063L195.6 39.9204L196.086 53.832L205.081 53.5179L214.075 53.2038L213.589 39.2922L204.595 39.6063ZM205.081 53.5179L198.498 47.3799L195.721 50.3586L202.303 56.4966L208.885 62.6346L211.663 59.6558L205.081 53.5179ZM202.303 56.4966L201.989 47.5021L194.074 47.7785L194.388 56.773L194.702 65.7675L202.617 65.4911L202.303 56.4966ZM194.388 56.773L200.526 50.1908L197.547 47.4131L191.409 53.9953L185.271 60.5775L188.25 63.3552L194.388 56.773ZM207.718 39.4973L207.403 30.5028L198.409 30.8169L198.723 39.8114L207.718 39.4973ZM210.644 39.3951L217.989 34.1946L215.183 30.2311L210.33 30.4006L210.644 39.3951ZM218.525 50.5268L211.18 55.7274L213.986 59.6908L218.839 59.5213L218.525 50.5268ZM218.573 50.5252L218.887 59.5197L227.882 59.2056L227.568 50.2111L218.573 50.5252ZM218.175 39.1321L217.861 30.1376L208.867 30.4517L209.181 39.4462L218.175 39.1321ZM221.317 39.0224L230.312 38.7083L229.998 29.7138L221.003 30.0279L221.317 39.0224ZM221.904 55.8121L222.218 64.8067L231.212 64.4926L230.898 55.498L221.904 55.8121ZM218.977 55.9143L211.637 61.122L214.444 65.0781L219.291 64.9088L218.977 55.9143ZM211.097 44.8066L218.437 39.5989L215.631 35.6428L210.783 35.8121L211.097 44.8066ZM211.049 44.8083L210.735 35.8137L201.74 36.1278L202.054 45.1224L211.049 44.8083ZM211.446 56.1773L211.76 65.1718L220.755 64.8578L220.44 55.8632L211.446 56.1773ZM208.304 56.2871L199.309 56.6011L199.623 65.5957L208.618 65.2816L208.304 56.2871ZM207.718 39.4973L208.032 48.4918L210.958 48.3896L210.644 39.3951L210.33 30.4006L207.403 30.5028L207.718 39.4973ZM210.644 39.3951L203.298 44.5956L211.18 55.7274L218.525 50.5268L225.87 45.3263L217.989 34.1946L210.644 39.3951ZM218.525 50.5268L218.839 59.5213L218.887 59.5197L218.573 50.5252L218.259 41.5306L218.211 41.5323L218.525 50.5268ZM218.573 50.5252L227.568 50.2111L227.17 38.818L218.175 39.1321L209.181 39.4462L209.579 50.8392L218.573 50.5252ZM218.175 39.1321L218.489 48.1266L221.631 48.0169L221.317 39.0224L221.003 30.0279L217.861 30.1376L218.175 39.1321ZM221.317 39.0224L212.323 39.3365L212.909 56.1262L221.904 55.8121L230.898 55.498L230.312 38.7083L221.317 39.0224ZM221.904 55.8121L221.589 46.8176L218.663 46.9198L218.977 55.9143L219.291 64.9088L222.218 64.8067L221.904 55.8121ZM218.977 55.9143L226.318 50.7067L218.437 39.5989L211.097 44.8066L203.757 50.0142L211.637 61.122L218.977 55.9143ZM211.097 44.8066L210.783 35.8121L210.735 35.8137L211.049 44.8083L211.363 53.8028L211.411 53.8011L211.097 44.8066ZM211.049 44.8083L202.054 45.1224L202.451 56.4914L211.446 56.1773L220.44 55.8632L220.043 44.4942L211.049 44.8083ZM211.446 56.1773L211.132 47.1828L207.99 47.2925L208.304 56.2871L208.618 65.2816L211.76 65.1718L211.446 56.1773ZM208.304 56.2871L217.298 55.973L216.712 39.1832L207.718 39.4973L198.723 39.8114L199.309 56.6011L208.304 56.2871ZM228.352 41.5384L237.346 41.2243L237.032 32.2298L228.038 32.5439L228.352 41.5384ZM223.339 41.7135L214.344 42.0276L214.658 51.0221L223.653 50.708L223.339 41.7135ZM223.242 38.9551L222.928 29.9606L213.934 30.2747L214.248 39.2692L223.242 38.9551ZM236.53 38.4911L245.525 38.177L245.211 29.1825L236.216 29.4966L236.53 38.4911ZM236.627 41.2494L236.941 50.244L245.935 49.9299L245.621 40.9353L236.627 41.2494ZM231.614 41.4245L231.3 32.43L222.305 32.7441L222.619 41.7386L231.614 41.4245ZM232.104 55.4559L232.418 64.4505L241.412 64.1364L241.098 55.1418L232.104 55.4559ZM228.842 55.5699L219.847 55.8839L220.161 64.8785L229.156 64.5644L228.842 55.5699ZM228.352 41.5384L228.038 32.5439L223.025 32.7189L223.339 41.7135L223.653 50.708L228.666 50.5329L228.352 41.5384ZM223.339 41.7135L232.333 41.3994L232.237 38.641L223.242 38.9551L214.248 39.2692L214.344 42.0276L223.339 41.7135ZM223.242 38.9551L223.557 47.9497L236.844 47.4856L236.53 38.4911L236.216 29.4966L222.928 29.9606L223.242 38.9551ZM236.53 38.4911L227.536 38.8052L227.632 41.5635L236.627 41.2494L245.621 40.9353L245.525 38.177L236.53 38.4911ZM236.627 41.2494L236.313 32.2549L231.3 32.43L231.614 41.4245L231.928 50.419L236.941 50.244L236.627 41.2494ZM231.614 41.4245L222.619 41.7386L223.109 55.77L232.104 55.4559L241.098 55.1418L240.608 41.1104L231.614 41.4245ZM232.104 55.4559L231.79 46.4614L228.528 46.5753L228.842 55.5699L229.156 64.5644L232.418 64.4505L232.104 55.4559ZM228.842 55.5699L237.836 55.2558L237.346 41.2243L228.352 41.5384L219.357 41.8525L219.847 55.8839L228.842 55.5699ZM238.935 52.3356L229.94 52.6497L230.07 56.3754L232.797 58.9178L238.935 52.3356ZM238.449 38.4241L238.135 29.4296L229.14 29.7437L229.454 38.7382L238.449 38.4241ZM241.711 38.3102L250.705 37.9961L250.391 29.0016L241.397 29.3157L241.711 38.3102ZM242.157 51.0944L233.163 51.4085L233.293 55.1342L236.019 57.6766L242.157 51.0944ZM243.423 52.275L237.285 58.8571L240.012 61.3996L243.737 61.2695L243.423 52.275ZM248.124 52.1108L248.438 61.1053L252.164 60.9752L254.707 58.2488L248.124 52.1108ZM249.305 50.8448L255.887 56.9828L258.43 54.2564L258.299 50.5307L249.305 50.8448ZM248.858 38.0606L248.544 29.0661L239.55 29.3802L239.864 38.3747L248.858 38.0606ZM252.12 37.9467L261.115 37.6326L260.801 28.6381L251.806 28.9522L252.12 37.9467ZM252.606 51.8582L259.188 57.9962L261.731 55.2698L261.601 51.5441L252.606 51.8582ZM249.829 54.837L250.143 63.8315L253.868 63.7014L256.411 60.975L249.829 54.837ZM241.913 55.1134L235.775 61.6956L238.502 64.238L242.227 64.1079L241.913 55.1134ZM238.935 52.3356L247.929 52.0216L247.443 38.11L238.449 38.4241L229.454 38.7382L229.94 52.6497L238.935 52.3356ZM238.449 38.4241L238.763 47.4186L242.025 47.3047L241.711 38.3102L241.397 29.3157L238.135 29.4296L238.449 38.4241ZM241.711 38.3102L232.716 38.6243L233.163 51.4085L242.157 51.0944L251.152 50.7803L250.705 37.9961L241.711 38.3102ZM242.157 51.0944L236.019 57.6766L237.285 58.8571L243.423 52.275L249.561 45.6928L248.295 44.5122L242.157 51.0944ZM243.423 52.275L243.737 61.2695L248.438 61.1053L248.124 52.1108L247.81 43.1163L243.109 43.2804L243.423 52.275ZM248.124 52.1108L254.707 58.2488L255.887 56.9828L249.305 50.8448L242.723 44.7068L241.542 45.9728L248.124 52.1108ZM249.305 50.8448L258.299 50.5307L257.853 37.7465L248.858 38.0606L239.864 38.3747L240.31 51.1589L249.305 50.8448ZM248.858 38.0606L249.173 47.0551L252.435 46.9412L252.12 37.9467L251.806 28.9522L248.544 29.0661L248.858 38.0606ZM252.12 37.9467L243.126 38.2608L243.612 52.1723L252.606 51.8582L261.601 51.5441L261.115 37.6326L252.12 37.9467ZM252.606 51.8582L246.024 45.7202L243.246 48.699L249.829 54.837L256.411 60.975L259.188 57.9962L252.606 51.8582ZM249.829 54.837L249.514 45.8425L241.599 46.1189L241.913 55.1134L242.227 64.1079L250.143 63.8315L249.829 54.837ZM241.913 55.1134L248.051 48.5312L245.073 45.7535L238.935 52.3356L232.797 58.9178L235.775 61.6956L241.913 55.1134ZM255.451 41.0483L246.457 41.3624L246.464 41.56L246.479 41.7571L255.451 41.0483ZM255.339 37.8343L255.025 28.8398L246.031 29.1539L246.345 38.1484L255.339 37.8343ZM258.601 37.7204L267.596 37.4063L267.282 28.4118L258.287 28.7259L258.601 37.7204ZM258.713 40.9344L267.713 41.0156L267.715 40.8179L267.708 40.6203L258.713 40.9344ZM258.635 49.6785L258.949 58.673L267.557 58.3724L267.634 49.7597L258.635 49.6785ZM256.14 49.7656L247.168 50.4744L247.846 59.0607L256.454 58.7601L256.14 49.7656ZM255.674 53.6002L246.679 53.9143L246.809 57.64L249.536 60.1824L255.674 53.6002ZM255.623 52.1611L249.041 46.0231L246.499 48.7496L246.629 52.4752L255.623 52.1611ZM256.619 51.0937L256.305 42.0992L252.579 42.2293L250.037 44.9557L256.619 51.0937ZM258.25 51.0368L264.388 44.4546L261.661 41.9121L257.936 42.0422L258.25 51.0368ZM259.317 52.0321L268.312 51.718L268.182 47.9924L265.455 45.4499L259.317 52.0321ZM259.367 53.4712L265.95 59.6092L268.492 56.8828L268.362 53.1571L259.367 53.4712ZM258.372 54.5386L258.686 63.5332L262.412 63.403L264.954 60.6766L258.372 54.5386ZM256.741 54.5956L250.603 61.1778L253.329 63.7202L257.055 63.5901L256.741 54.5956ZM255.451 41.0483L264.446 40.7342L264.334 37.5202L255.339 37.8343L246.345 38.1484L246.457 41.3624L255.451 41.0483ZM255.339 37.8343L255.653 46.8288L258.915 46.7149L258.601 37.7204L258.287 28.7259L255.025 28.8398L255.339 37.8343ZM258.601 37.7204L249.607 38.0345L249.719 41.2485L258.713 40.9344L267.708 40.6203L267.596 37.4063L258.601 37.7204ZM258.713 40.9344L249.714 40.8532L249.635 49.5973L258.635 49.6785L267.634 49.7597L267.713 41.0156L258.713 40.9344ZM258.635 49.6785L258.32 40.684L255.826 40.7711L256.14 49.7656L256.454 58.7601L258.949 58.673L258.635 49.6785ZM256.14 49.7656L265.112 49.0568L264.423 40.3396L255.451 41.0483L246.479 41.7571L247.168 50.4744L256.14 49.7656ZM255.674 53.6002L264.668 53.2861L264.618 51.847L255.623 52.1611L246.629 52.4752L246.679 53.9143L255.674 53.6002ZM255.623 52.1611L262.206 58.2991L263.201 57.2317L256.619 51.0937L250.037 44.9557L249.041 46.0231L255.623 52.1611ZM256.619 51.0937L256.933 60.0882L258.564 60.0313L258.25 51.0368L257.936 42.0422L256.305 42.0992L256.619 51.0937ZM258.25 51.0368L252.112 57.619L253.179 58.6143L259.317 52.0321L265.455 45.4499L264.388 44.4546L258.25 51.0368ZM259.317 52.0321L250.323 52.3462L250.373 53.7853L259.367 53.4712L268.362 53.1571L268.312 51.718L259.317 52.0321ZM259.367 53.4712L252.785 47.3333L251.79 48.4006L258.372 54.5386L264.954 60.6766L265.95 59.6092L259.367 53.4712ZM258.372 54.5386L258.058 45.5441L256.427 45.6011L256.741 54.5956L257.055 63.5901L258.686 63.5332L258.372 54.5386ZM256.741 54.5956L262.879 48.0134L261.812 47.0181L255.674 53.6002L249.536 60.1824L250.603 61.1778L256.741 54.5956ZM262.033 40.8185L253.039 41.1326L253.046 41.3302L253.061 41.5273L262.033 40.8185ZM261.921 37.6045L261.607 28.6099L252.613 28.924L252.927 37.9185L261.921 37.6045ZM265.183 37.4905L274.178 37.1764L273.864 28.1819L264.869 28.496L265.183 37.4905ZM265.295 40.7046L274.295 40.7858L274.297 40.5881L274.29 40.3905L265.295 40.7046ZM265.217 49.4487L265.531 58.4432L274.138 58.1426L274.216 49.5299L265.217 49.4487ZM262.722 49.5358L253.75 50.2445L254.428 58.8309L263.036 58.5303L262.722 49.5358ZM262.256 53.3704L253.261 53.6845L253.391 57.4101L256.118 59.9526L262.256 53.3704ZM262.205 51.9313L255.623 45.7933L253.081 48.5197L253.211 52.2454L262.205 51.9313ZM263.201 50.8639L262.887 41.8694L259.161 41.9995L256.618 44.7259L263.201 50.8639ZM264.832 50.8069L270.97 44.2247L268.243 41.6823L264.518 41.8124L264.832 50.8069ZM265.899 51.8023L274.894 51.4882L274.763 47.7625L272.037 45.2201L265.899 51.8023ZM265.949 53.2414L272.531 59.3794L275.074 56.653L274.944 52.9273L265.949 53.2414ZM264.954 54.3088L265.268 63.3033L268.994 63.1732L271.536 60.4468L264.954 54.3088ZM263.323 54.3657L257.185 60.9479L259.911 63.4904L263.637 63.3603L263.323 54.3657ZM262.033 40.8185L271.028 40.5044L270.916 37.2904L261.921 37.6045L252.927 37.9185L253.039 41.1326L262.033 40.8185ZM261.921 37.6045L262.235 46.599L265.497 46.4851L265.183 37.4905L264.869 28.496L261.607 28.6099L261.921 37.6045ZM265.183 37.4905L256.189 37.8046L256.301 41.0187L265.295 40.7046L274.29 40.3905L274.178 37.1764L265.183 37.4905ZM265.295 40.7046L256.296 40.6234L256.217 49.3675L265.217 49.4487L274.216 49.5299L274.295 40.7858L265.295 40.7046ZM265.217 49.4487L264.902 40.4541L262.408 40.5413L262.722 49.5358L263.036 58.5303L265.531 58.4432L265.217 49.4487ZM262.722 49.5358L271.694 48.827L271.005 40.1097L262.033 40.8185L253.061 41.5273L253.75 50.2445L262.722 49.5358ZM262.256 53.3704L271.25 53.0563L271.2 51.6172L262.205 51.9313L253.211 52.2454L253.261 53.6845L262.256 53.3704ZM262.205 51.9313L268.787 58.0693L269.783 57.0019L263.201 50.8639L256.618 44.7259L255.623 45.7933L262.205 51.9313ZM263.201 50.8639L263.515 59.8584L265.146 59.8014L264.832 50.8069L264.518 41.8124L262.887 41.8694L263.201 50.8639ZM264.832 50.8069L258.694 57.3891L259.761 58.3845L265.899 51.8023L272.037 45.2201L270.97 44.2247L264.832 50.8069ZM265.899 51.8023L256.905 52.1164L256.955 53.5555L265.949 53.2414L274.944 52.9273L274.894 51.4882L265.899 51.8023ZM265.949 53.2414L259.367 47.1034L258.372 48.1708L264.954 54.3088L271.536 60.4468L272.531 59.3794L265.949 53.2414ZM264.954 54.3088L264.64 45.3143L263.009 45.3712L263.323 54.3657L263.637 63.3603L265.268 63.3033L264.954 54.3088ZM263.323 54.3657L269.461 47.7836L268.394 46.7882L262.256 53.3704L256.118 59.9526L257.185 60.9479L263.323 54.3657ZM268.615 40.5886L259.621 40.9027L259.628 41.1003L259.643 41.2974L268.615 40.5886ZM268.503 37.3746L268.189 28.3801L259.194 28.6942L259.509 37.6887L268.503 37.3746ZM271.765 37.2607L280.76 36.9466L280.445 27.9521L271.451 28.2662L271.765 37.2607ZM271.877 40.4747L280.877 40.5559L280.879 40.3582L280.872 40.1606L271.877 40.4747ZM271.798 49.2188L272.113 58.2133L280.72 57.9127L280.798 49.3L271.798 49.2188ZM269.304 49.3059L260.332 50.0147L261.01 58.601L269.618 58.3004L269.304 49.3059ZM268.837 53.1405L259.843 53.4546L259.973 57.1803L262.7 59.7227L268.837 53.1405ZM268.787 51.7014L262.205 45.5634L259.663 48.2899L259.793 52.0155L268.787 51.7014ZM269.783 50.634L269.468 41.6395L265.743 41.7696L263.2 44.496L269.783 50.634ZM271.414 50.5771L277.552 43.9949L274.825 41.4525L271.1 41.5826L271.414 50.5771ZM272.481 51.5724L281.476 51.2583L281.345 47.5327L278.619 44.9902L272.481 51.5724ZM272.531 53.0116L279.113 59.1495L281.656 56.4231L281.526 52.6975L272.531 53.0116ZM271.536 54.0789L271.85 63.0735L275.576 62.9434L278.118 60.2169L271.536 54.0789ZM269.905 54.1359L263.767 60.7181L266.493 63.2605L270.219 63.1304L269.905 54.1359ZM268.615 40.5886L277.61 40.2746L277.498 37.0605L268.503 37.3746L259.509 37.6887L259.621 40.9027L268.615 40.5886ZM268.503 37.3746L268.817 46.3691L272.079 46.2552L271.765 37.2607L271.451 28.2662L268.189 28.3801L268.503 37.3746ZM271.765 37.2607L262.771 37.5748L262.883 40.7888L271.877 40.4747L280.872 40.1606L280.76 36.9466L271.765 37.2607ZM271.877 40.4747L262.878 40.3935L262.799 49.1376L271.798 49.2188L280.798 49.3L280.877 40.5559L271.877 40.4747ZM271.798 49.2188L271.484 40.2243L268.99 40.3114L269.304 49.3059L269.618 58.3004L272.113 58.2133L271.798 49.2188ZM269.304 49.3059L278.276 48.5972L277.587 39.8799L268.615 40.5886L259.643 41.2974L260.332 50.0147L269.304 49.3059ZM268.837 53.1405L277.832 52.8264L277.782 51.3873L268.787 51.7014L259.793 52.0155L259.843 53.4546L268.837 53.1405ZM268.787 51.7014L275.369 57.8394L276.365 56.772L269.783 50.634L263.2 44.496L262.205 45.5634L268.787 51.7014ZM269.783 50.634L270.097 59.6285L271.728 59.5716L271.414 50.5771L271.1 41.5826L269.468 41.6395L269.783 50.634ZM271.414 50.5771L265.276 57.1593L266.343 58.1546L272.481 51.5724L278.619 44.9902L277.552 43.9949L271.414 50.5771ZM272.481 51.5724L263.486 51.8865L263.537 53.3256L272.531 53.0116L281.526 52.6975L281.476 51.2583L272.481 51.5724ZM272.531 53.0116L265.949 46.8736L264.954 47.941L271.536 54.0789L278.118 60.2169L279.113 59.1495L272.531 53.0116ZM271.536 54.0789L271.222 45.0844L269.591 45.1414L269.905 54.1359L270.219 63.1304L271.85 63.0735L271.536 54.0789ZM269.905 54.1359L276.043 47.5537L274.975 46.5584L268.837 53.1405L262.7 59.7227L263.767 60.7181L269.905 54.1359Z" fill="#211E1F" mask="url(#path-1-outside-1_1_59)"/>
</svg>
